<svg width="631" height="92" viewBox="0 0 631 92" fill="none" xmlns="http://www.w3.org/2000/svg">
<path d="M0.524903 90V0.624996H18.6499V35.625H53.7749V0.624996H71.8999V90H53.7749V50.625H18.6499V90H0.524903ZM141.108 90H124.733V82.5H124.358C122.025 85.6667 119.441 88 116.608 89.5C113.858 91 110.316 91.75 105.983 91.75C98.9829 91.75 93.5246 89.6667 89.6079 85.5C85.6912 81.3333 83.7329 75.7083 83.7329 68.625V25.875H100.608V65.75C100.608 73.5 104.15 77.375 111.233 77.375C115.15 77.375 118.275 76.0417 120.608 73.375C122.941 70.7083 124.108 67.2083 124.108 62.875V25.875H141.108V90ZM152.104 90V25.875H168.479V34.5H168.854C172.937 27.5833 179.146 24.125 187.479 24.125C191.479 24.125 195.021 25.1667 198.104 27.25C201.271 29.25 203.646 31.9583 205.229 35.375H205.479C210.146 27.875 216.562 24.125 224.729 24.125C231.396 24.125 236.562 26.1667 240.229 30.25C243.979 34.25 245.854 39.7917 245.854 46.875V90H228.854V49.75C228.854 42.4167 225.562 38.75 218.979 38.75C215.396 38.75 212.562 40.0417 210.479 42.625C208.479 45.125 207.479 48.5 207.479 52.75V90H190.479V49.75C190.479 42.4167 187.187 38.75 180.604 38.75C177.187 38.75 174.396 40.0417 172.229 42.625C170.146 45.125 169.104 48.5 169.104 52.75V90H152.104ZM296.727 90C295.894 88.9167 295.227 86.5417 294.727 82.875H294.477C292.644 85.625 290.31 87.75 287.477 89.25C284.644 90.75 280.685 91.5 275.602 91.5C268.852 91.5 263.435 89.7917 259.352 86.375C255.269 82.9583 253.227 78.125 253.227 71.875C253.227 65.375 255.477 60.625 259.977 57.625C264.477 54.5417 270.81 52.4167 278.977 51.25C284.977 50.4167 289.06 49.5833 291.227 48.75C293.394 47.8333 294.477 46.25 294.477 44C294.477 41.6667 293.56 39.8333 291.727 38.5C289.894 37.0833 287.227 36.375 283.727 36.375C275.977 36.375 271.852 39.375 271.352 45.375H256.227C256.477 39.2917 258.935 34.25 263.602 30.25C268.269 26.25 275.019 24.25 283.852 24.25C301.852 24.25 310.852 32.125 310.852 47.875V80.5C310.852 85.3333 311.602 88.2917 313.102 89.375V90H296.727ZM279.727 79.625C284.394 79.625 288.06 78.4167 290.727 76C293.477 73.5833 294.852 70.7083 294.852 67.375V57.75C293.019 58.8333 289.06 60.0833 282.977 61.5C278.144 62.5833 274.727 63.8333 272.727 65.25C270.727 66.5833 269.727 68.6667 269.727 71.5C269.727 76.9167 273.06 79.625 279.727 79.625ZM338.285 25.875V34.625H338.66C343.076 27.625 349.41 24.125 357.66 24.125C364.243 24.125 369.576 26.375 373.66 30.875C377.743 35.2917 379.785 41.0417 379.785 48.125V90H362.785V50.625C362.785 47.125 361.785 44.2917 359.785 42.125C357.868 39.9583 355.16 38.875 351.66 38.875C347.91 38.875 344.785 40.25 342.285 43C339.868 45.75 338.66 49.2917 338.66 53.625V90H321.66V25.875H338.285ZM391.638 90V0.624996H409.763V36.25L444.138 0.624996H466.638L431.638 36.375L468.888 90H447.638L418.888 48.25L409.763 57.5V90H391.638ZM474.492 90V25.875H491.492V90H474.492ZM474.492 15.875V0.624996H491.492V15.875H474.492ZM519.071 25.875V34.625H519.446C523.862 27.625 530.196 24.125 538.446 24.125C545.029 24.125 550.362 26.375 554.446 30.875C558.529 35.2917 560.571 41.0417 560.571 48.125V90H543.571V50.625C543.571 47.125 542.571 44.2917 540.571 42.125C538.654 39.9583 535.946 38.875 532.446 38.875C528.696 38.875 525.571 40.25 523.071 43C520.654 45.75 519.446 49.2917 519.446 53.625V90H502.446V25.875H519.071ZM595.049 91.875C586.966 91.875 580.424 88.8333 575.424 82.75C570.424 76.5833 567.924 68.3333 567.924 58C567.924 48 570.466 39.875 575.549 33.625C580.716 27.2917 587.299 24.125 595.299 24.125C603.299 24.125 609.341 27.2917 613.424 33.625H613.799V0.624996H630.799V90H614.424V81.625H614.174C610.008 88.4583 603.633 91.875 595.049 91.875ZM598.799 77.625C603.799 77.625 607.591 75.9167 610.174 72.5C612.841 69.0833 614.174 64.375 614.174 58.375C614.174 44.7083 609.216 37.875 599.299 37.875C594.716 37.875 591.216 39.7083 588.799 43.375C586.383 47.0417 585.174 51.9167 585.174 58C585.174 64.25 586.341 69.0833 588.674 72.5C591.091 75.9167 594.466 77.625 598.799 77.625Z" fill="url(#paint0_linear_928_531)"/>
<defs>
<linearGradient id="paint0_linear_928_531" x1="-6.5" y1="100" x2="660.5" y2="90" gradientUnits="userSpaceOnUse">
<stop offset="0.130034" stop-color="#59B0E2"/>
<stop offset="0.218377" stop-color="#00A678" stop-opacity="0.9"/>
<stop offset="0.258233" stop-color="#00A678" stop-opacity="0.9"/>
<stop offset="0.471135" stop-color="#F1BE09" stop-opacity="0.8"/>
<stop offset="0.712473" stop-color="#F46D2C" stop-opacity="0.9"/>
<stop offset="1" stop-color="#E1007D" stop-opacity="0.9"/>
</linearGradient>
</defs>
</svg>
