<svg width="225" height="371" viewBox="0 0 225 371" fill="none" xmlns="http://www.w3.org/2000/svg">
<rect x="2" y="151" width="220" height="220" rx="110" fill="#F0EBEB"/>
<path d="M68.2563 256.3C66.8696 256.3 65.8496 255.773 65.1963 254.72H65.1563V256H62.5363V241.7H65.2563V246.98H65.3163C65.9696 245.967 66.9229 245.46 68.1763 245.46C69.4696 245.46 70.5296 245.967 71.3563 246.98C72.1829 247.98 72.5963 249.28 72.5963 250.88C72.5963 252.533 72.1963 253.853 71.3963 254.84C70.5963 255.813 69.5496 256.3 68.2563 256.3ZM67.6563 254.02C68.3496 254.02 68.8829 253.747 69.2563 253.2C69.6429 252.653 69.8363 251.88 69.8363 250.88C69.8363 249.893 69.6363 249.113 69.2363 248.54C68.8496 247.953 68.2896 247.66 67.5563 247.66C65.9829 247.66 65.1963 248.753 65.1963 250.94C65.1963 251.887 65.4163 252.64 65.8563 253.2C66.2963 253.747 66.8963 254.02 67.6563 254.02ZM78.6844 256.3C77.031 256.3 75.731 255.793 74.7844 254.78C73.8377 253.753 73.3644 252.447 73.3644 250.86C73.3644 249.327 73.8377 248.047 74.7844 247.02C75.731 245.98 76.9444 245.46 78.4244 245.46C80.0377 245.46 81.2844 246.02 82.1644 247.14C83.0444 248.26 83.4844 249.76 83.4844 251.64H76.0444C76.151 252.453 76.4244 253.087 76.8644 253.54C77.3044 253.98 77.9044 254.2 78.6644 254.2C79.6644 254.2 80.3244 253.78 80.6444 252.94H83.3244C83.1244 253.9 82.6177 254.7 81.8044 255.34C80.991 255.98 79.951 256.3 78.6844 256.3ZM78.4644 247.56C77.1444 247.56 76.351 248.293 76.0844 249.76H80.6444C80.6044 249.107 80.3844 248.58 79.9844 248.18C79.5844 247.767 79.0777 247.56 78.4644 247.56ZM94.5627 256C94.4293 255.827 94.3227 255.447 94.2427 254.86H94.2027C93.9093 255.3 93.536 255.64 93.0827 255.88C92.6293 256.12 91.996 256.24 91.1827 256.24C90.1027 256.24 89.236 255.967 88.5827 255.42C87.9293 254.873 87.6027 254.1 87.6027 253.1C87.6027 252.06 87.9627 251.3 88.6827 250.82C89.4027 250.327 90.416 249.987 91.7227 249.8C92.6827 249.667 93.336 249.533 93.6827 249.4C94.0293 249.253 94.2027 249 94.2027 248.64C94.2027 248.267 94.056 247.973 93.7627 247.76C93.4693 247.533 93.0427 247.42 92.4827 247.42C91.2427 247.42 90.5827 247.9 90.5027 248.86H88.0827C88.1227 247.887 88.516 247.08 89.2627 246.44C90.0093 245.8 91.0893 245.48 92.5027 245.48C95.3827 245.48 96.8227 246.74 96.8227 249.26V254.48C96.8227 255.253 96.9427 255.727 97.1827 255.9V256H94.5627ZM91.8427 254.34C92.5893 254.34 93.176 254.147 93.6027 253.76C94.0427 253.373 94.2627 252.913 94.2627 252.38V250.84C93.9693 251.013 93.336 251.213 92.3627 251.44C91.5893 251.613 91.0427 251.813 90.7227 252.04C90.4027 252.253 90.2427 252.587 90.2427 253.04C90.2427 253.907 90.776 254.34 91.8427 254.34ZM106.071 256.3C104.605 256.3 103.458 255.98 102.631 255.34C101.805 254.687 101.351 253.8 101.271 252.68H103.791C103.965 253.813 104.711 254.38 106.031 254.38C106.631 254.38 107.091 254.273 107.411 254.06C107.745 253.847 107.911 253.56 107.911 253.2C107.911 253.067 107.885 252.947 107.831 252.84C107.791 252.733 107.711 252.64 107.591 252.56C107.485 252.467 107.385 252.393 107.291 252.34C107.211 252.287 107.065 252.233 106.851 252.18C106.638 252.127 106.471 252.087 106.351 252.06C106.245 252.033 106.051 252 105.771 251.96C105.505 251.907 105.318 251.867 105.211 251.84C104.651 251.733 104.191 251.627 103.831 251.52C103.485 251.4 103.118 251.233 102.731 251.02C102.345 250.793 102.051 250.493 101.851 250.12C101.665 249.733 101.571 249.273 101.571 248.74C101.571 247.673 101.958 246.86 102.731 246.3C103.518 245.74 104.525 245.46 105.751 245.46C107.071 245.46 108.105 245.767 108.851 246.38C109.611 246.98 110.045 247.807 110.151 248.86H107.691C107.585 247.86 106.925 247.36 105.711 247.36C105.165 247.36 104.731 247.46 104.411 247.66C104.105 247.86 103.951 248.14 103.951 248.5C103.951 248.62 103.971 248.733 104.011 248.84C104.065 248.933 104.145 249.02 104.251 249.1C104.371 249.167 104.485 249.227 104.591 249.28C104.698 249.32 104.851 249.367 105.051 249.42C105.251 249.46 105.425 249.5 105.571 249.54C105.718 249.567 105.918 249.607 106.171 249.66C106.425 249.7 106.625 249.733 106.771 249.76C107.198 249.853 107.545 249.94 107.811 250.02C108.091 250.087 108.411 250.207 108.771 250.38C109.131 250.54 109.411 250.727 109.611 250.94C109.825 251.14 110.005 251.42 110.151 251.78C110.311 252.127 110.391 252.533 110.391 253C110.391 254.013 109.991 254.82 109.191 255.42C108.405 256.007 107.365 256.3 106.071 256.3ZM120.436 254.76C119.436 255.787 118.149 256.3 116.576 256.3C115.003 256.3 113.716 255.787 112.716 254.76C111.716 253.72 111.216 252.427 111.216 250.88C111.216 249.333 111.716 248.047 112.716 247.02C113.716 245.98 115.003 245.46 116.576 245.46C118.149 245.46 119.436 245.98 120.436 247.02C121.436 248.047 121.936 249.333 121.936 250.88C121.936 252.427 121.436 253.72 120.436 254.76ZM116.576 254.22C117.389 254.22 118.023 253.92 118.476 253.32C118.943 252.707 119.176 251.893 119.176 250.88C119.176 249.867 118.943 249.053 118.476 248.44C118.023 247.827 117.389 247.52 116.576 247.52C115.749 247.52 115.109 247.827 114.656 248.44C114.203 249.04 113.976 249.853 113.976 250.88C113.976 251.893 114.203 252.707 114.656 253.32C115.109 253.92 115.749 254.22 116.576 254.22ZM132.3 256H129.68V254.8H129.62C129.247 255.307 128.834 255.68 128.38 255.92C127.94 256.16 127.374 256.28 126.68 256.28C125.56 256.28 124.687 255.947 124.06 255.28C123.434 254.613 123.12 253.713 123.12 252.58V245.74H125.82V252.12C125.82 253.36 126.387 253.98 127.52 253.98C128.147 253.98 128.647 253.767 129.02 253.34C129.394 252.913 129.58 252.353 129.58 251.66V245.74H132.3V256ZM136.68 245.74V247.38H136.74C137.06 246.78 137.413 246.34 137.8 246.06C138.186 245.767 138.673 245.62 139.26 245.62C139.54 245.62 139.753 245.647 139.9 245.7V248.08H139.84C138.92 247.987 138.18 248.187 137.62 248.68C137.06 249.173 136.78 249.947 136.78 251V256H134.06V245.74H136.68ZM145.538 256.3C143.952 256.3 142.678 255.787 141.718 254.76C140.758 253.733 140.278 252.44 140.278 250.88C140.278 249.32 140.745 248.027 141.678 247C142.625 245.973 143.865 245.46 145.398 245.46C146.692 245.46 147.745 245.8 148.558 246.48C149.372 247.16 149.872 248.073 150.058 249.22H147.398C147.305 248.753 147.092 248.373 146.758 248.08C146.425 247.787 146.012 247.64 145.518 247.64C144.718 247.64 144.105 247.927 143.678 248.5C143.252 249.073 143.038 249.867 143.038 250.88C143.038 251.88 143.245 252.673 143.658 253.26C144.072 253.833 144.678 254.12 145.478 254.12C146.665 254.12 147.352 253.54 147.538 252.38H150.158C150.065 253.513 149.605 254.453 148.778 255.2C147.952 255.933 146.872 256.3 145.538 256.3ZM156.165 256.3C154.512 256.3 153.212 255.793 152.265 254.78C151.318 253.753 150.845 252.447 150.845 250.86C150.845 249.327 151.318 248.047 152.265 247.02C153.212 245.98 154.425 245.46 155.905 245.46C157.518 245.46 158.765 246.02 159.645 247.14C160.525 248.26 160.965 249.76 160.965 251.64H153.525C153.632 252.453 153.905 253.087 154.345 253.54C154.785 253.98 155.385 254.2 156.145 254.2C157.145 254.2 157.805 253.78 158.125 252.94H160.805C160.605 253.9 160.098 254.7 159.285 255.34C158.472 255.98 157.432 256.3 156.165 256.3ZM155.945 247.56C154.625 247.56 153.832 248.293 153.565 249.76H158.125C158.085 249.107 157.865 248.58 157.465 248.18C157.065 247.767 156.558 247.56 155.945 247.56ZM81.0023 277.76C80.0023 278.787 78.7157 279.3 77.1423 279.3C75.569 279.3 74.2823 278.787 73.2823 277.76C72.2823 276.72 71.7823 275.427 71.7823 273.88C71.7823 272.333 72.2823 271.047 73.2823 270.02C74.2823 268.98 75.569 268.46 77.1423 268.46C78.7157 268.46 80.0023 268.98 81.0023 270.02C82.0023 271.047 82.5023 272.333 82.5023 273.88C82.5023 275.427 82.0023 276.72 81.0023 277.76ZM77.1423 277.22C77.9557 277.22 78.589 276.92 79.0423 276.32C79.509 275.707 79.7423 274.893 79.7423 273.88C79.7423 272.867 79.509 272.053 79.0423 271.44C78.589 270.827 77.9557 270.52 77.1423 270.52C76.3157 270.52 75.6757 270.827 75.2223 271.44C74.769 272.04 74.5423 272.853 74.5423 273.88C74.5423 274.893 74.769 275.707 75.2223 276.32C75.6757 276.92 76.3157 277.22 77.1423 277.22ZM82.9714 270.62V268.74H84.3714V267.82C84.3714 266.62 84.7847 265.767 85.6114 265.26C86.4381 264.753 87.5447 264.573 88.9314 264.72V266.82C88.2514 266.793 87.7714 266.853 87.4914 267C87.2247 267.147 87.0914 267.473 87.0914 267.98V268.74H88.9314V270.62H87.0914V279H84.3714V270.62H82.9714ZM99.9923 279C99.859 278.827 99.7523 278.447 99.6723 277.86H99.6323C99.339 278.3 98.9657 278.64 98.5123 278.88C98.059 279.12 97.4257 279.24 96.6123 279.24C95.5323 279.24 94.6657 278.967 94.0123 278.42C93.359 277.873 93.0323 277.1 93.0323 276.1C93.0323 275.06 93.3923 274.3 94.1123 273.82C94.8323 273.327 95.8457 272.987 97.1523 272.8C98.1123 272.667 98.7657 272.533 99.1123 272.4C99.459 272.253 99.6323 272 99.6323 271.64C99.6323 271.267 99.4857 270.973 99.1923 270.76C98.899 270.533 98.4723 270.42 97.9123 270.42C96.6723 270.42 96.0123 270.9 95.9323 271.86H93.5123C93.5523 270.887 93.9457 270.08 94.6923 269.44C95.439 268.8 96.519 268.48 97.9323 268.48C100.812 268.48 102.252 269.74 102.252 272.26V277.48C102.252 278.253 102.372 278.727 102.612 278.9V279H99.9923ZM97.2723 277.34C98.019 277.34 98.6057 277.147 99.0323 276.76C99.4723 276.373 99.6923 275.913 99.6923 275.38V273.84C99.399 274.013 98.7657 274.213 97.7923 274.44C97.019 274.613 96.4723 274.813 96.1523 275.04C95.8323 275.253 95.6723 275.587 95.6723 276.04C95.6723 276.907 96.2057 277.34 97.2723 277.34ZM108.742 279.3C107.155 279.3 105.882 278.787 104.922 277.76C103.962 276.733 103.482 275.44 103.482 273.88C103.482 272.32 103.948 271.027 104.882 270C105.828 268.973 107.068 268.46 108.602 268.46C109.895 268.46 110.948 268.8 111.762 269.48C112.575 270.16 113.075 271.073 113.262 272.22H110.602C110.508 271.753 110.295 271.373 109.962 271.08C109.628 270.787 109.215 270.64 108.722 270.64C107.922 270.64 107.308 270.927 106.882 271.5C106.455 272.073 106.242 272.867 106.242 273.88C106.242 274.88 106.448 275.673 106.862 276.26C107.275 276.833 107.882 277.12 108.682 277.12C109.868 277.12 110.555 276.54 110.742 275.38H113.362C113.268 276.513 112.808 277.453 111.982 278.2C111.155 278.933 110.075 279.3 108.742 279.3ZM113.948 270.54V268.74H115.368V265.54H118.028V268.74H119.788V270.54H118.028V275.98C118.028 276.66 118.368 277 119.048 277L119.848 276.98V278.98C119.435 279.007 118.868 279.02 118.148 279.02C117.361 279.02 116.701 278.833 116.168 278.46C115.635 278.073 115.368 277.44 115.368 276.56V270.54H113.948ZM121.189 279V268.74H123.909V279H121.189ZM121.189 267.14V264.7H123.909V267.14H121.189ZM134.381 277.76C133.381 278.787 132.095 279.3 130.521 279.3C128.948 279.3 127.661 278.787 126.661 277.76C125.661 276.72 125.161 275.427 125.161 273.88C125.161 272.333 125.661 271.047 126.661 270.02C127.661 268.98 128.948 268.46 130.521 268.46C132.095 268.46 133.381 268.98 134.381 270.02C135.381 271.047 135.881 272.333 135.881 273.88C135.881 275.427 135.381 276.72 134.381 277.76ZM130.521 277.22C131.335 277.22 131.968 276.92 132.421 276.32C132.888 275.707 133.121 274.893 133.121 273.88C133.121 272.867 132.888 272.053 132.421 271.44C131.968 270.827 131.335 270.52 130.521 270.52C129.695 270.52 129.055 270.827 128.601 271.44C128.148 272.04 127.921 272.853 127.921 273.88C127.921 274.893 128.148 275.707 128.601 276.32C129.055 276.92 129.695 277.22 130.521 277.22ZM139.806 268.74V270.14H139.866C140.572 269.02 141.586 268.46 142.906 268.46C143.959 268.46 144.812 268.82 145.466 269.54C146.119 270.247 146.446 271.167 146.446 272.3V279H143.726V272.7C143.726 272.14 143.566 271.687 143.246 271.34C142.939 270.993 142.506 270.82 141.946 270.82C141.346 270.82 140.846 271.04 140.446 271.48C140.059 271.92 139.866 272.487 139.866 273.18V279H137.146V268.74H139.806ZM147.982 282.32V281.34C148.942 280.847 149.422 280.067 149.422 279H147.962V276.1H150.882V278.84C150.882 279.8 150.602 280.58 150.042 281.18C149.496 281.793 148.809 282.173 147.982 282.32ZM54.5615 291.74V293.14H54.6215C55.3282 292.02 56.3415 291.46 57.6615 291.46C58.7148 291.46 59.5682 291.82 60.2215 292.54C60.8748 293.247 61.2015 294.167 61.2015 295.3V302H58.4815V295.7C58.4815 295.14 58.3215 294.687 58.0015 294.34C57.6948 293.993 57.2615 293.82 56.7015 293.82C56.1015 293.82 55.6015 294.04 55.2015 294.48C54.8148 294.92 54.6215 295.487 54.6215 296.18V302H51.9015V291.74H54.5615ZM71.598 300.76C70.598 301.787 69.3114 302.3 67.738 302.3C66.1647 302.3 64.878 301.787 63.878 300.76C62.878 299.72 62.378 298.427 62.378 296.88C62.378 295.333 62.878 294.047 63.878 293.02C64.878 291.98 66.1647 291.46 67.738 291.46C69.3114 291.46 70.598 291.98 71.598 293.02C72.598 294.047 73.098 295.333 73.098 296.88C73.098 298.427 72.598 299.72 71.598 300.76ZM67.738 300.22C68.5514 300.22 69.1847 299.92 69.638 299.32C70.1047 298.707 70.338 297.893 70.338 296.88C70.338 295.867 70.1047 295.053 69.638 294.44C69.1847 293.827 68.5514 293.52 67.738 293.52C66.9114 293.52 66.2714 293.827 65.818 294.44C65.3647 295.04 65.138 295.853 65.138 296.88C65.138 297.893 65.3647 298.707 65.818 299.32C66.2714 299.92 66.9114 300.22 67.738 300.22ZM73.5671 293.54V291.74H74.9871V288.54H77.6471V291.74H79.4071V293.54H77.6471V298.98C77.6471 299.66 77.9871 300 78.6671 300L79.4671 299.98V301.98C79.0538 302.007 78.4871 302.02 77.7671 302.02C76.9804 302.02 76.3204 301.833 75.7871 301.46C75.2538 301.073 74.9871 300.44 74.9871 299.56V293.54H73.5671ZM84.0071 305.38C83.3938 305.38 82.8804 305.34 82.4671 305.26V303.32C83.0804 303.307 83.5138 303.233 83.7671 303.1C84.0338 302.98 84.1671 302.7 84.1671 302.26V291.74H86.8871V302.4C86.8871 303.44 86.6604 304.187 86.2071 304.64C85.7271 305.133 84.9938 305.38 84.0071 305.38ZM84.1671 290.14V287.7H86.8871V290.14H84.1671ZM97.7398 302H95.1198V300.8H95.0598C94.6864 301.307 94.2731 301.68 93.8198 301.92C93.3798 302.16 92.8131 302.28 92.1198 302.28C90.9998 302.28 90.1264 301.947 89.4998 301.28C88.8731 300.613 88.5598 299.713 88.5598 298.58V291.74H91.2598V298.12C91.2598 299.36 91.8264 299.98 92.9598 299.98C93.5864 299.98 94.0864 299.767 94.4598 299.34C94.8331 298.913 95.0198 298.353 95.0198 297.66V291.74H97.7398V302ZM103.659 302.3C102.192 302.3 101.046 301.98 100.219 301.34C99.3925 300.687 98.9391 299.8 98.8591 298.68H101.379C101.552 299.813 102.299 300.38 103.619 300.38C104.219 300.38 104.679 300.273 104.999 300.06C105.332 299.847 105.499 299.56 105.499 299.2C105.499 299.067 105.472 298.947 105.419 298.84C105.379 298.733 105.299 298.64 105.179 298.56C105.072 298.467 104.972 298.393 104.879 298.34C104.799 298.287 104.652 298.233 104.439 298.18C104.226 298.127 104.059 298.087 103.939 298.06C103.832 298.033 103.639 298 103.359 297.96C103.092 297.907 102.906 297.867 102.799 297.84C102.239 297.733 101.779 297.627 101.419 297.52C101.072 297.4 100.706 297.233 100.319 297.02C99.9325 296.793 99.6391 296.493 99.4391 296.12C99.2525 295.733 99.1591 295.273 99.1591 294.74C99.1591 293.673 99.5458 292.86 100.319 292.3C101.106 291.74 102.112 291.46 103.339 291.46C104.659 291.46 105.692 291.767 106.439 292.38C107.199 292.98 107.632 293.807 107.739 294.86H105.279C105.172 293.86 104.512 293.36 103.299 293.36C102.752 293.36 102.319 293.46 101.999 293.66C101.692 293.86 101.539 294.14 101.539 294.5C101.539 294.62 101.559 294.733 101.599 294.84C101.652 294.933 101.732 295.02 101.839 295.1C101.959 295.167 102.072 295.227 102.179 295.28C102.286 295.32 102.439 295.367 102.639 295.42C102.839 295.46 103.012 295.5 103.159 295.54C103.306 295.567 103.506 295.607 103.759 295.66C104.012 295.7 104.212 295.733 104.359 295.76C104.786 295.853 105.132 295.94 105.399 296.02C105.679 296.087 105.999 296.207 106.359 296.38C106.719 296.54 106.999 296.727 107.199 296.94C107.412 297.14 107.592 297.42 107.739 297.78C107.899 298.127 107.979 298.533 107.979 299C107.979 300.013 107.579 300.82 106.779 301.42C105.992 302.007 104.952 302.3 103.659 302.3ZM108.411 293.54V291.74H109.831V288.54H112.491V291.74H114.251V293.54H112.491V298.98C112.491 299.66 112.831 300 113.511 300L114.311 299.98V301.98C113.898 302.007 113.331 302.02 112.611 302.02C111.824 302.02 111.164 301.833 110.631 301.46C110.098 301.073 109.831 300.44 109.831 299.56V293.54H108.411ZM121.211 302L118.211 291.74H120.911L122.151 296.5L122.611 298.42H122.651C122.798 297.687 122.944 297.04 123.091 296.48L124.371 291.74H126.691L128.031 296.48L128.511 298.42H128.551C128.711 297.7 128.864 297.06 129.011 296.5L130.311 291.74H132.951L129.891 302H127.411L126.051 296.96L125.591 295.18H125.551C125.378 295.82 125.218 296.413 125.071 296.96L123.671 302H121.211ZM142.34 300.76C141.34 301.787 140.054 302.3 138.48 302.3C136.907 302.3 135.62 301.787 134.62 300.76C133.62 299.72 133.12 298.427 133.12 296.88C133.12 295.333 133.62 294.047 134.62 293.02C135.62 291.98 136.907 291.46 138.48 291.46C140.054 291.46 141.34 291.98 142.34 293.02C143.34 294.047 143.84 295.333 143.84 296.88C143.84 298.427 143.34 299.72 142.34 300.76ZM138.48 300.22C139.294 300.22 139.927 299.92 140.38 299.32C140.847 298.707 141.08 297.893 141.08 296.88C141.08 295.867 140.847 295.053 140.38 294.44C139.927 293.827 139.294 293.52 138.48 293.52C137.654 293.52 137.014 293.827 136.56 294.44C136.107 295.04 135.88 295.853 135.88 296.88C135.88 297.893 136.107 298.707 136.56 299.32C137.014 299.92 137.654 300.22 138.48 300.22ZM147.725 291.74V293.38H147.785C148.105 292.78 148.458 292.34 148.845 292.06C149.231 291.767 149.718 291.62 150.305 291.62C150.585 291.62 150.798 291.647 150.945 291.7V294.08H150.885C149.965 293.987 149.225 294.187 148.665 294.68C148.105 295.173 147.825 295.947 147.825 297V302H145.105V291.74H147.725ZM155.663 302.3C154.37 302.3 153.323 301.813 152.523 300.84C151.723 299.853 151.323 298.533 151.323 296.88C151.323 295.28 151.73 293.98 152.543 292.98C153.37 291.967 154.423 291.46 155.703 291.46C156.983 291.46 157.95 291.967 158.603 292.98H158.663V287.7H161.383V302H158.763V300.66H158.723C158.057 301.753 157.037 302.3 155.663 302.3ZM156.263 300.02C157.063 300.02 157.67 299.747 158.083 299.2C158.51 298.653 158.723 297.9 158.723 296.94C158.723 294.753 157.93 293.66 156.343 293.66C155.61 293.66 155.05 293.953 154.663 294.54C154.277 295.127 154.083 295.907 154.083 296.88C154.083 297.88 154.27 298.653 154.643 299.2C155.03 299.747 155.57 300.02 156.263 300.02ZM167.311 302.3C165.845 302.3 164.698 301.98 163.871 301.34C163.045 300.687 162.591 299.8 162.511 298.68H165.031C165.205 299.813 165.951 300.38 167.271 300.38C167.871 300.38 168.331 300.273 168.651 300.06C168.985 299.847 169.151 299.56 169.151 299.2C169.151 299.067 169.125 298.947 169.071 298.84C169.031 298.733 168.951 298.64 168.831 298.56C168.725 298.467 168.625 298.393 168.531 298.34C168.451 298.287 168.305 298.233 168.091 298.18C167.878 298.127 167.711 298.087 167.591 298.06C167.485 298.033 167.291 298 167.011 297.96C166.745 297.907 166.558 297.867 166.451 297.84C165.891 297.733 165.431 297.627 165.071 297.52C164.725 297.4 164.358 297.233 163.971 297.02C163.585 296.793 163.291 296.493 163.091 296.12C162.905 295.733 162.811 295.273 162.811 294.74C162.811 293.673 163.198 292.86 163.971 292.3C164.758 291.74 165.765 291.46 166.991 291.46C168.311 291.46 169.345 291.767 170.091 292.38C170.851 292.98 171.285 293.807 171.391 294.86H168.931C168.825 293.86 168.165 293.36 166.951 293.36C166.405 293.36 165.971 293.46 165.651 293.66C165.345 293.86 165.191 294.14 165.191 294.5C165.191 294.62 165.211 294.733 165.251 294.84C165.305 294.933 165.385 295.02 165.491 295.1C165.611 295.167 165.725 295.227 165.831 295.28C165.938 295.32 166.091 295.367 166.291 295.42C166.491 295.46 166.665 295.5 166.811 295.54C166.958 295.567 167.158 295.607 167.411 295.66C167.665 295.7 167.865 295.733 168.011 295.76C168.438 295.853 168.785 295.94 169.051 296.02C169.331 296.087 169.651 296.207 170.011 296.38C170.371 296.54 170.651 296.727 170.851 296.94C171.065 297.14 171.245 297.42 171.391 297.78C171.551 298.127 171.631 298.533 171.631 299C171.631 300.013 171.231 300.82 170.431 301.42C169.645 302.007 168.605 302.3 167.311 302.3Z" fill="black"/>
<rect x="4.5" y="4.5" width="216" height="216" rx="108" stroke="#F46D2C" stroke-width="9"/>
<path d="M28.2882 126.07V105.64H32.9682V107.5H33.0582C34.2382 105.96 35.7882 105.19 37.7082 105.19C39.7082 105.19 41.2982 105.96 42.4782 107.5C43.6782 109.02 44.2782 110.96 44.2782 113.32C44.2782 115.8 43.6682 117.78 42.4482 119.26C41.2282 120.74 39.6082 121.48 37.5882 121.48C35.7082 121.48 34.2582 120.79 33.2382 119.41H33.1782V126.07H28.2882ZM36.3282 117.7C37.2682 117.7 37.9982 117.33 38.5182 116.59C39.0582 115.83 39.3282 114.8 39.3282 113.5C39.3282 112.14 39.0682 111.07 38.5482 110.29C38.0282 109.51 37.2582 109.12 36.2382 109.12C35.2182 109.12 34.4282 109.53 33.8682 110.35C33.3082 111.15 33.0282 112.2 33.0282 113.5C33.0282 114.76 33.3182 115.78 33.8982 116.56C34.4782 117.32 35.2882 117.7 36.3282 117.7ZM50.4549 121.39C48.8749 121.39 47.6049 120.98 46.6449 120.16C45.6849 119.34 45.2049 118.19 45.2049 116.71C45.2049 115.15 45.7249 114.02 46.7649 113.32C47.8049 112.6 49.2449 112.12 51.0849 111.88C52.5849 111.7 53.6049 111.5 54.1449 111.28C54.7049 111.04 54.9849 110.67 54.9849 110.17C54.9849 109.07 54.2849 108.52 52.8849 108.52C51.3849 108.52 50.5549 109.18 50.3949 110.5H45.8949C45.9549 108.98 46.5749 107.72 47.7549 106.72C48.9549 105.72 50.6549 105.22 52.8549 105.22C55.0549 105.22 56.7149 105.64 57.8349 106.48C59.1349 107.42 59.7849 108.88 59.7849 110.86V118.6C59.7849 119.82 59.9649 120.55 60.3249 120.79V121H55.5849C55.3849 120.72 55.2149 120.15 55.0749 119.29H55.0149C54.0349 120.69 52.5149 121.39 50.4549 121.39ZM52.0149 118.27C52.9349 118.27 53.6749 118.02 54.2349 117.52C54.8149 117 55.1049 116.33 55.1049 115.51V113.68C54.6249 113.92 53.7849 114.19 52.5849 114.49C51.6049 114.71 50.9149 114.97 50.5149 115.27C50.1149 115.57 49.9149 116 49.9149 116.56C49.9149 117.7 50.6149 118.27 52.0149 118.27ZM62.1554 121V105.64H66.8354V108.04H66.9254C67.9654 106.28 69.3654 105.4 71.1254 105.4C71.5854 105.4 71.9054 105.44 72.0854 105.52V109.72H71.9654C70.4454 109.5 69.2454 109.77 68.3654 110.53C67.4854 111.27 67.0454 112.46 67.0454 114.1V121H62.1554ZM80.0227 121.18C78.4627 121.18 77.2527 120.87 76.3927 120.25C75.5527 119.61 75.1327 118.51 75.1327 116.95V108.7H73.0927V105.64H75.1327V100.78H79.9027V105.64H82.6927V108.7H79.9027V115.9C79.9027 116.46 80.0427 116.85 80.3227 117.07C80.6227 117.29 81.0527 117.4 81.6127 117.4C81.7727 117.4 81.9827 117.4 82.2427 117.4C82.5027 117.38 82.6527 117.37 82.6927 117.37V120.94C82.1327 121.1 81.2427 121.18 80.0227 121.18ZM84.4503 121V105.64H89.3403V121H84.4503ZM84.4503 103.51V99.55H89.3403V103.51H84.4503ZM99.1566 121.48C96.7166 121.48 94.7466 120.71 93.2466 119.17C91.7466 117.63 90.9966 115.69 90.9966 113.35C90.9966 111.01 91.7366 109.07 93.2166 107.53C94.6966 105.99 96.6366 105.22 99.0366 105.22C101.077 105.22 102.747 105.76 104.047 106.84C105.347 107.92 106.107 109.34 106.327 111.1H101.617C101.277 109.58 100.437 108.82 99.0966 108.82C98.0566 108.82 97.2666 109.22 96.7266 110.02C96.2066 110.82 95.9466 111.93 95.9466 113.35C95.9466 114.75 96.2166 115.85 96.7566 116.65C97.2966 117.43 98.0766 117.82 99.0966 117.82C100.657 117.82 101.547 116.94 101.767 115.18H106.447C106.387 117 105.687 118.51 104.347 119.71C103.027 120.89 101.297 121.48 99.1566 121.48ZM108.005 121V105.64H112.895V121H108.005ZM108.005 103.51V99.55H112.895V103.51H108.005ZM115.241 126.07V105.64H119.921V107.5H120.011C121.191 105.96 122.741 105.19 124.661 105.19C126.661 105.19 128.251 105.96 129.431 107.5C130.631 109.02 131.231 110.96 131.231 113.32C131.231 115.8 130.621 117.78 129.401 119.26C128.181 120.74 126.561 121.48 124.541 121.48C122.661 121.48 121.211 120.79 120.191 119.41H120.131V126.07H115.241ZM123.281 117.7C124.221 117.7 124.951 117.33 125.471 116.59C126.011 115.83 126.281 114.8 126.281 113.5C126.281 112.14 126.021 111.07 125.501 110.29C124.981 109.51 124.211 109.12 123.191 109.12C122.171 109.12 121.381 109.53 120.821 110.35C120.261 111.15 119.981 112.2 119.981 113.5C119.981 114.76 120.271 115.78 120.851 116.56C121.431 117.32 122.241 117.7 123.281 117.7ZM137.408 121.39C135.828 121.39 134.558 120.98 133.598 120.16C132.638 119.34 132.158 118.19 132.158 116.71C132.158 115.15 132.678 114.02 133.718 113.32C134.758 112.6 136.198 112.12 138.038 111.88C139.538 111.7 140.558 111.5 141.098 111.28C141.658 111.04 141.938 110.67 141.938 110.17C141.938 109.07 141.238 108.52 139.838 108.52C138.338 108.52 137.508 109.18 137.348 110.5H132.848C132.908 108.98 133.528 107.72 134.708 106.72C135.908 105.72 137.608 105.22 139.808 105.22C142.008 105.22 143.668 105.64 144.788 106.48C146.088 107.42 146.738 108.88 146.738 110.86V118.6C146.738 119.82 146.918 120.55 147.278 120.79V121H142.538C142.338 120.72 142.168 120.15 142.028 119.29H141.968C140.988 120.69 139.468 121.39 137.408 121.39ZM138.968 118.27C139.888 118.27 140.628 118.02 141.188 117.52C141.768 117 142.058 116.33 142.058 115.51V113.68C141.578 113.92 140.738 114.19 139.538 114.49C138.558 114.71 137.868 114.97 137.468 115.27C137.068 115.57 136.868 116 136.868 116.56C136.868 117.7 137.568 118.27 138.968 118.27ZM154.906 121.18C153.346 121.18 152.136 120.87 151.276 120.25C150.436 119.61 150.016 118.51 150.016 116.95V108.7H147.976V105.64H150.016V100.78H154.786V105.64H157.576V108.7H154.786V115.9C154.786 116.46 154.926 116.85 155.206 117.07C155.506 117.29 155.936 117.4 156.496 117.4C156.656 117.4 156.866 117.4 157.126 117.4C157.386 117.38 157.536 117.37 157.576 117.37V120.94C157.016 121.1 156.126 121.18 154.906 121.18ZM159.333 121V105.64H164.223V121H159.333ZM159.333 103.51V99.55H164.223V103.51H159.333ZM171.669 116.74C172.229 117.58 173.029 118 174.069 118C175.109 118 175.909 117.58 176.469 116.74C177.049 115.9 177.339 114.77 177.339 113.35C177.339 111.93 177.049 110.8 176.469 109.96C175.909 109.1 175.109 108.67 174.069 108.67C173.029 108.67 172.229 109.09 171.669 109.93C171.109 110.77 170.829 111.91 170.829 113.35C170.829 114.77 171.109 115.9 171.669 116.74ZM180.009 119.17C178.509 120.71 176.539 121.48 174.099 121.48C171.659 121.48 169.679 120.71 168.159 119.17C166.639 117.63 165.879 115.69 165.879 113.35C165.879 111.01 166.639 109.07 168.159 107.53C169.679 105.99 171.659 105.22 174.099 105.22C176.539 105.22 178.509 105.99 180.009 107.53C181.529 109.07 182.289 111.01 182.289 113.35C182.289 115.69 181.529 117.63 180.009 119.17ZM183.942 121V105.64H188.652V107.74H188.742C189.922 106.04 191.502 105.19 193.482 105.19C195.142 105.19 196.442 105.73 197.382 106.81C198.342 107.87 198.822 109.27 198.822 111.01V121H193.932V112C193.932 111.16 193.722 110.5 193.302 110.02C192.902 109.52 192.312 109.27 191.532 109.27C190.732 109.27 190.082 109.57 189.582 110.17C189.082 110.77 188.832 111.55 188.832 112.51V121H183.942Z" fill="black"/>
<path d="M112 174V199M112 199L122 189M112 199L102 189" stroke="black" stroke-width="7" stroke-linecap="round" stroke-linejoin="round"/>
</svg>
