<svg width="225" height="371" viewBox="0 0 225 371" fill="none" xmlns="http://www.w3.org/2000/svg">
<rect x="5" y="151" width="220" height="220" rx="110" fill="#F0EBEB"/>
<path d="M79.1957 256.3C77.809 256.3 76.789 255.773 76.1357 254.72H76.0957V256H73.4757V241.7H76.1957V246.98H76.2557C76.909 245.967 77.8624 245.46 79.1157 245.46C80.409 245.46 81.469 245.967 82.2957 246.98C83.1224 247.98 83.5357 249.28 83.5357 250.88C83.5357 252.533 83.1357 253.853 82.3357 254.84C81.5357 255.813 80.489 256.3 79.1957 256.3ZM78.5957 254.02C79.289 254.02 79.8224 253.747 80.1957 253.2C80.5824 252.653 80.7757 251.88 80.7757 250.88C80.7757 249.893 80.5757 249.113 80.1757 248.54C79.789 247.953 79.229 247.66 78.4957 247.66C76.9224 247.66 76.1357 248.753 76.1357 250.94C76.1357 251.887 76.3557 252.64 76.7957 253.2C77.2357 253.747 77.8357 254.02 78.5957 254.02ZM89.6238 256.3C87.9705 256.3 86.6705 255.793 85.7238 254.78C84.7772 253.753 84.3038 252.447 84.3038 250.86C84.3038 249.327 84.7772 248.047 85.7238 247.02C86.6705 245.98 87.8838 245.46 89.3638 245.46C90.9772 245.46 92.2238 246.02 93.1038 247.14C93.9838 248.26 94.4238 249.76 94.4238 251.64H86.9838C87.0905 252.453 87.3638 253.087 87.8038 253.54C88.2438 253.98 88.8438 254.2 89.6038 254.2C90.6038 254.2 91.2638 253.78 91.5838 252.94H94.2638C94.0638 253.9 93.5572 254.7 92.7438 255.34C91.9305 255.98 90.8905 256.3 89.6238 256.3ZM89.4038 247.56C88.0838 247.56 87.2905 248.293 87.0238 249.76H91.5838C91.5438 249.107 91.3238 248.58 90.9238 248.18C90.5238 247.767 90.0172 247.56 89.4038 247.56ZM101.662 245.74V247.38H101.722C102.042 246.78 102.395 246.34 102.782 246.06C103.169 245.767 103.655 245.62 104.242 245.62C104.522 245.62 104.735 245.647 104.882 245.7V248.08H104.822C103.902 247.987 103.162 248.187 102.602 248.68C102.042 249.173 101.762 249.947 101.762 251V256H99.0421V245.74H101.662ZM114.481 254.76C113.481 255.787 112.194 256.3 110.621 256.3C109.048 256.3 107.761 255.787 106.761 254.76C105.761 253.72 105.261 252.427 105.261 250.88C105.261 249.333 105.761 248.047 106.761 247.02C107.761 245.98 109.048 245.46 110.621 245.46C112.194 245.46 113.481 245.98 114.481 247.02C115.481 248.047 115.981 249.333 115.981 250.88C115.981 252.427 115.481 253.72 114.481 254.76ZM110.621 254.22C111.434 254.22 112.068 253.92 112.521 253.32C112.988 252.707 113.221 251.893 113.221 250.88C113.221 249.867 112.988 249.053 112.521 248.44C112.068 247.827 111.434 247.52 110.621 247.52C109.794 247.52 109.154 247.827 108.701 248.44C108.248 249.04 108.021 249.853 108.021 250.88C108.021 251.893 108.248 252.707 108.701 253.32C109.154 253.92 109.794 254.22 110.621 254.22ZM125.965 254.76C124.965 255.787 123.679 256.3 122.105 256.3C120.532 256.3 119.245 255.787 118.245 254.76C117.245 253.72 116.745 252.427 116.745 250.88C116.745 249.333 117.245 248.047 118.245 247.02C119.245 245.98 120.532 245.46 122.105 245.46C123.679 245.46 124.965 245.98 125.965 247.02C126.965 248.047 127.465 249.333 127.465 250.88C127.465 252.427 126.965 253.72 125.965 254.76ZM122.105 254.22C122.919 254.22 123.552 253.92 124.005 253.32C124.472 252.707 124.705 251.893 124.705 250.88C124.705 249.867 124.472 249.053 124.005 248.44C123.552 247.827 122.919 247.52 122.105 247.52C121.279 247.52 120.639 247.827 120.185 248.44C119.732 249.04 119.505 249.853 119.505 250.88C119.505 251.893 119.732 252.707 120.185 253.32C120.639 253.92 121.279 254.22 122.105 254.22ZM127.934 247.54V245.74H129.354V242.54H132.014V245.74H133.774V247.54H132.014V252.98C132.014 253.66 132.354 254 133.034 254L133.834 253.98V255.98C133.421 256.007 132.854 256.02 132.134 256.02C131.348 256.02 130.688 255.833 130.154 255.46C129.621 255.073 129.354 254.44 129.354 253.56V247.54H127.934ZM139.897 256.3C138.244 256.3 136.944 255.793 135.997 254.78C135.051 253.753 134.577 252.447 134.577 250.86C134.577 249.327 135.051 248.047 135.997 247.02C136.944 245.98 138.157 245.46 139.637 245.46C141.251 245.46 142.497 246.02 143.377 247.14C144.257 248.26 144.697 249.76 144.697 251.64H137.257C137.364 252.453 137.637 253.087 138.077 253.54C138.517 253.98 139.117 254.2 139.877 254.2C140.877 254.2 141.537 253.78 141.857 252.94H144.537C144.337 253.9 143.831 254.7 143.017 255.34C142.204 255.98 141.164 256.3 139.897 256.3ZM139.677 247.56C138.357 247.56 137.564 248.293 137.297 249.76H141.857C141.817 249.107 141.597 248.58 141.197 248.18C140.797 247.767 140.291 247.56 139.677 247.56ZM149.796 256.3C148.503 256.3 147.456 255.813 146.656 254.84C145.856 253.853 145.456 252.533 145.456 250.88C145.456 249.28 145.863 247.98 146.676 246.98C147.503 245.967 148.556 245.46 149.836 245.46C151.116 245.46 152.083 245.967 152.736 246.98H152.796V241.7H155.516V256H152.896V254.66H152.856C152.19 255.753 151.17 256.3 149.796 256.3ZM150.396 254.02C151.196 254.02 151.803 253.747 152.216 253.2C152.643 252.653 152.856 251.9 152.856 250.94C152.856 248.753 152.063 247.66 150.476 247.66C149.743 247.66 149.183 247.953 148.796 248.54C148.41 249.127 148.216 249.907 148.216 250.88C148.216 251.88 148.403 252.653 148.776 253.2C149.163 253.747 149.703 254.02 150.396 254.02ZM69.1007 279V268.74H71.8207V279H69.1007ZM69.1007 267.14V264.7H71.8207V267.14H69.1007ZM76.2334 268.74V270.14H76.2934C77 269.02 78.0134 268.46 79.3334 268.46C80.3867 268.46 81.24 268.82 81.8934 269.54C82.5467 270.247 82.8734 271.167 82.8734 272.3V279H80.1534V272.7C80.1534 272.14 79.9934 271.687 79.6734 271.34C79.3667 270.993 78.9334 270.82 78.3734 270.82C77.7734 270.82 77.2734 271.04 76.8734 271.48C76.4867 271.92 76.2934 272.487 76.2934 273.18V279H73.5734V268.74H76.2334ZM94.3693 279C94.236 278.827 94.1293 278.447 94.0493 277.86H94.0093C93.716 278.3 93.3426 278.64 92.8893 278.88C92.436 279.12 91.8026 279.24 90.9893 279.24C89.9093 279.24 89.0426 278.967 88.3893 278.42C87.736 277.873 87.4093 277.1 87.4093 276.1C87.4093 275.06 87.7693 274.3 88.4893 273.82C89.2093 273.327 90.2226 272.987 91.5293 272.8C92.4893 272.667 93.1426 272.533 93.4893 272.4C93.836 272.253 94.0093 272 94.0093 271.64C94.0093 271.267 93.8626 270.973 93.5693 270.76C93.276 270.533 92.8493 270.42 92.2893 270.42C91.0493 270.42 90.3893 270.9 90.3093 271.86H87.8893C87.9293 270.887 88.3226 270.08 89.0693 269.44C89.816 268.8 90.896 268.48 92.3093 268.48C95.1893 268.48 96.6293 269.74 96.6293 272.26V277.48C96.6293 278.253 96.7493 278.727 96.9893 278.9V279H94.3693ZM91.6493 277.34C92.396 277.34 92.9826 277.147 93.4093 276.76C93.8493 276.373 94.0693 275.913 94.0693 275.38V273.84C93.776 274.013 93.1426 274.213 92.1693 274.44C91.396 274.613 90.8493 274.813 90.5293 275.04C90.2093 275.253 90.0493 275.587 90.0493 276.04C90.0493 276.907 90.5826 277.34 91.6493 277.34ZM104.438 264.7V270.08H104.498C104.885 269.52 105.305 269.113 105.758 268.86C106.225 268.593 106.798 268.46 107.478 268.46C108.531 268.46 109.385 268.82 110.038 269.54C110.691 270.247 111.018 271.167 111.018 272.3V279H108.298V272.7C108.298 272.14 108.138 271.687 107.818 271.34C107.511 270.993 107.078 270.82 106.518 270.82C105.918 270.82 105.418 271.04 105.018 271.48C104.631 271.92 104.438 272.487 104.438 273.18V279H101.718V264.7H104.438ZM121.794 279H119.174V277.8H119.114C118.741 278.307 118.328 278.68 117.874 278.92C117.434 279.16 116.868 279.28 116.174 279.28C115.054 279.28 114.181 278.947 113.554 278.28C112.928 277.613 112.614 276.713 112.614 275.58V268.74H115.314V275.12C115.314 276.36 115.881 276.98 117.014 276.98C117.641 276.98 118.141 276.767 118.514 276.34C118.888 275.913 119.074 275.353 119.074 274.66V268.74H121.794V279ZM123.554 279V268.74H126.174V270.12H126.234C126.887 269.013 127.88 268.46 129.214 268.46C129.854 268.46 130.42 268.627 130.914 268.96C131.42 269.28 131.8 269.713 132.054 270.26H132.094C132.84 269.06 133.867 268.46 135.174 268.46C136.24 268.46 137.067 268.787 137.654 269.44C138.254 270.08 138.554 270.967 138.554 272.1V279H135.834V272.56C135.834 271.387 135.307 270.8 134.254 270.8C133.68 270.8 133.227 271.007 132.894 271.42C132.574 271.82 132.414 272.36 132.414 273.04V279H129.694V272.56C129.694 271.387 129.167 270.8 128.114 270.8C127.567 270.8 127.12 271.007 126.774 271.42C126.44 271.82 126.274 272.36 126.274 273.04V279H123.554ZM146.694 279C146.56 278.827 146.454 278.447 146.374 277.86H146.334C146.04 278.3 145.667 278.64 145.214 278.88C144.76 279.12 144.127 279.24 143.314 279.24C142.234 279.24 141.367 278.967 140.714 278.42C140.06 277.873 139.734 277.1 139.734 276.1C139.734 275.06 140.094 274.3 140.814 273.82C141.534 273.327 142.547 272.987 143.854 272.8C144.814 272.667 145.467 272.533 145.814 272.4C146.16 272.253 146.334 272 146.334 271.64C146.334 271.267 146.187 270.973 145.894 270.76C145.6 270.533 145.174 270.42 144.614 270.42C143.374 270.42 142.714 270.9 142.634 271.86H140.214C140.254 270.887 140.647 270.08 141.394 269.44C142.14 268.8 143.22 268.48 144.634 268.48C147.514 268.48 148.954 269.74 148.954 272.26V277.48C148.954 278.253 149.074 278.727 149.314 278.9V279H146.694ZM143.974 277.34C144.72 277.34 145.307 277.147 145.734 276.76C146.174 276.373 146.394 275.913 146.394 275.38V273.84C146.1 274.013 145.467 274.213 144.494 274.44C143.72 274.613 143.174 274.813 142.854 275.04C142.534 275.253 142.374 275.587 142.374 276.04C142.374 276.907 142.907 277.34 143.974 277.34ZM153.343 268.74V270.14H153.403C154.109 269.02 155.123 268.46 156.443 268.46C157.496 268.46 158.349 268.82 159.003 269.54C159.656 270.247 159.983 271.167 159.983 272.3V279H157.263V272.7C157.263 272.14 157.103 271.687 156.783 271.34C156.476 270.993 156.043 270.82 155.483 270.82C154.883 270.82 154.383 271.04 153.983 271.48C153.596 271.92 153.403 272.487 153.403 273.18V279H150.683V268.74H153.343ZM96.0088 291.74V293.14H96.0688C96.7754 292.02 97.7888 291.46 99.1088 291.46C100.162 291.46 101.015 291.82 101.669 292.54C102.322 293.247 102.649 294.167 102.649 295.3V302H99.9288V295.7C99.9288 295.14 99.7688 294.687 99.4488 294.34C99.1421 293.993 98.7088 293.82 98.1488 293.82C97.5488 293.82 97.0488 294.04 96.6488 294.48C96.2621 294.92 96.0688 295.487 96.0688 296.18V302H93.3488V291.74H96.0088ZM109.145 302.3C107.492 302.3 106.192 301.793 105.245 300.78C104.299 299.753 103.825 298.447 103.825 296.86C103.825 295.327 104.299 294.047 105.245 293.02C106.192 291.98 107.405 291.46 108.885 291.46C110.499 291.46 111.745 292.02 112.625 293.14C113.505 294.26 113.945 295.76 113.945 297.64H106.505C106.612 298.453 106.885 299.087 107.325 299.54C107.765 299.98 108.365 300.2 109.125 300.2C110.125 300.2 110.785 299.78 111.105 298.94H113.785C113.585 299.9 113.079 300.7 112.265 301.34C111.452 301.98 110.412 302.3 109.145 302.3ZM108.925 293.56C107.605 293.56 106.812 294.293 106.545 295.76H111.105C111.065 295.107 110.845 294.58 110.445 294.18C110.045 293.767 109.539 293.56 108.925 293.56ZM120.024 302.3C118.371 302.3 117.071 301.793 116.124 300.78C115.178 299.753 114.704 298.447 114.704 296.86C114.704 295.327 115.178 294.047 116.124 293.02C117.071 291.98 118.284 291.46 119.764 291.46C121.378 291.46 122.624 292.02 123.504 293.14C124.384 294.26 124.824 295.76 124.824 297.64H117.384C117.491 298.453 117.764 299.087 118.204 299.54C118.644 299.98 119.244 300.2 120.004 300.2C121.004 300.2 121.664 299.78 121.984 298.94H124.664C124.464 299.9 123.958 300.7 123.144 301.34C122.331 301.98 121.291 302.3 120.024 302.3ZM119.804 293.56C118.484 293.56 117.691 294.293 117.424 295.76H121.984C121.944 295.107 121.724 294.58 121.324 294.18C120.924 293.767 120.418 293.56 119.804 293.56ZM129.923 302.3C128.63 302.3 127.583 301.813 126.783 300.84C125.983 299.853 125.583 298.533 125.583 296.88C125.583 295.28 125.99 293.98 126.803 292.98C127.63 291.967 128.683 291.46 129.963 291.46C131.243 291.46 132.21 291.967 132.863 292.98H132.923V287.7H135.643V302H133.023V300.66H132.983C132.316 301.753 131.296 302.3 129.923 302.3ZM130.523 300.02C131.323 300.02 131.93 299.747 132.343 299.2C132.77 298.653 132.983 297.9 132.983 296.94C132.983 294.753 132.19 293.66 130.603 293.66C129.87 293.66 129.31 293.953 128.923 294.54C128.536 295.127 128.343 295.907 128.343 296.88C128.343 297.88 128.53 298.653 128.903 299.2C129.29 299.747 129.83 300.02 130.523 300.02Z" fill="black"/>
<rect x="4.5" y="4.5" width="216" height="216" rx="108" stroke="#59B0E2" stroke-width="9"/>
<path d="M66.3829 126.07V105.64H71.0629V107.5H71.1529C72.3329 105.96 73.8829 105.19 75.8029 105.19C77.8029 105.19 79.3929 105.96 80.5729 107.5C81.7729 109.02 82.3729 110.96 82.3729 113.32C82.3729 115.8 81.7629 117.78 80.5429 119.26C79.3229 120.74 77.7029 121.48 75.6829 121.48C73.8029 121.48 72.3529 120.79 71.3329 119.41H71.2729V126.07H66.3829ZM74.4229 117.7C75.3629 117.7 76.0929 117.33 76.6129 116.59C77.1529 115.83 77.4229 114.8 77.4229 113.5C77.4229 112.14 77.1629 111.07 76.6429 110.29C76.1229 109.51 75.3529 109.12 74.3329 109.12C73.3129 109.12 72.5229 109.53 71.9629 110.35C71.4029 111.15 71.1229 112.2 71.1229 113.5C71.1229 114.76 71.4129 115.78 71.9929 116.56C72.5729 117.32 73.3829 117.7 74.4229 117.7ZM91.5196 121.45C89.0396 121.45 87.0496 120.69 85.5496 119.17C84.0696 117.63 83.3296 115.67 83.3296 113.29C83.3296 110.97 84.0596 109.04 85.5196 107.5C86.9996 105.96 88.8996 105.19 91.2196 105.19C93.3196 105.19 95.0696 105.83 96.4696 107.11C98.3096 108.79 99.2096 111.28 99.1696 114.58H88.1296C88.2896 115.64 88.6596 116.47 89.2396 117.07C89.8196 117.65 90.5996 117.94 91.5796 117.94C92.8396 117.94 93.6896 117.43 94.1296 116.41H98.8996C98.5396 117.89 97.6796 119.1 96.3196 120.04C94.9796 120.98 93.3796 121.45 91.5196 121.45ZM88.1596 111.67H94.2196C94.1396 110.75 93.8296 110.02 93.2896 109.48C92.7696 108.94 92.1096 108.67 91.3096 108.67C89.5696 108.67 88.5196 109.67 88.1596 111.67ZM105.907 116.74C106.467 117.58 107.267 118 108.307 118C109.347 118 110.147 117.58 110.707 116.74C111.287 115.9 111.577 114.77 111.577 113.35C111.577 111.93 111.287 110.8 110.707 109.96C110.147 109.1 109.347 108.67 108.307 108.67C107.267 108.67 106.467 109.09 105.907 109.93C105.347 110.77 105.067 111.91 105.067 113.35C105.067 114.77 105.347 115.9 105.907 116.74ZM114.247 119.17C112.747 120.71 110.777 121.48 108.337 121.48C105.897 121.48 103.917 120.71 102.397 119.17C100.877 117.63 100.117 115.69 100.117 113.35C100.117 111.01 100.877 109.07 102.397 107.53C103.917 105.99 105.897 105.22 108.337 105.22C110.777 105.22 112.747 105.99 114.247 107.53C115.767 109.07 116.527 111.01 116.527 113.35C116.527 115.69 115.767 117.63 114.247 119.17ZM118.18 126.07V105.64H122.86V107.5H122.95C124.13 105.96 125.68 105.19 127.6 105.19C129.6 105.19 131.19 105.96 132.37 107.5C133.57 109.02 134.17 110.96 134.17 113.32C134.17 115.8 133.56 117.78 132.34 119.26C131.12 120.74 129.5 121.48 127.48 121.48C125.6 121.48 124.15 120.79 123.13 119.41H123.07V126.07H118.18ZM126.22 117.7C127.16 117.7 127.89 117.33 128.41 116.59C128.95 115.83 129.22 114.8 129.22 113.5C129.22 112.14 128.96 111.07 128.44 110.29C127.92 109.51 127.15 109.12 126.13 109.12C125.11 109.12 124.32 109.53 123.76 110.35C123.2 111.15 122.92 112.2 122.92 113.5C122.92 114.76 123.21 115.78 123.79 116.56C124.37 117.32 125.18 117.7 126.22 117.7ZM135.846 121V99.55H140.796V121H135.846ZM150.67 121.45C148.19 121.45 146.2 120.69 144.7 119.17C143.22 117.63 142.48 115.67 142.48 113.29C142.48 110.97 143.21 109.04 144.67 107.5C146.15 105.96 148.05 105.19 150.37 105.19C152.47 105.19 154.22 105.83 155.62 107.11C157.46 108.79 158.36 111.28 158.32 114.58H147.28C147.44 115.64 147.81 116.47 148.39 117.07C148.97 117.65 149.75 117.94 150.73 117.94C151.99 117.94 152.84 117.43 153.28 116.41H158.05C157.69 117.89 156.83 119.1 155.47 120.04C154.13 120.98 152.53 121.45 150.67 121.45ZM147.31 111.67H153.37C153.29 110.75 152.98 110.02 152.44 109.48C151.92 108.94 151.26 108.67 150.46 108.67C148.72 108.67 147.67 109.67 147.31 111.67Z" fill="black"/>
<path d="M112 174V199M112 199L122 189M112 199L102 189" stroke="black" stroke-width="7" stroke-linecap="round" stroke-linejoin="round"/>
</svg>
