<svg width="225" height="371" viewBox="0 0 225 371" fill="none" xmlns="http://www.w3.org/2000/svg">
<rect y="151" width="220" height="220" rx="110" fill="#F0EBEB"/>
<path d="M45.8353 256.3C44.2486 256.3 42.9753 255.787 42.0153 254.76C41.0553 253.733 40.5753 252.44 40.5753 250.88C40.5753 249.32 41.042 248.027 41.9753 247C42.922 245.973 44.162 245.46 45.6953 245.46C46.9886 245.46 48.042 245.8 48.8553 246.48C49.6686 247.16 50.1686 248.073 50.3553 249.22H47.6953C47.602 248.753 47.3886 248.373 47.0553 248.08C46.722 247.787 46.3086 247.64 45.8153 247.64C45.0153 247.64 44.402 247.927 43.9753 248.5C43.5486 249.073 43.3353 249.867 43.3353 250.88C43.3353 251.88 43.542 252.673 43.9553 253.26C44.3686 253.833 44.9753 254.12 45.7753 254.12C46.962 254.12 47.6486 253.54 47.8353 252.38H50.4553C50.362 253.513 49.902 254.453 49.0753 255.2C48.2486 255.933 47.1686 256.3 45.8353 256.3ZM60.3617 254.76C59.3617 255.787 58.0751 256.3 56.5017 256.3C54.9284 256.3 53.6417 255.787 52.6417 254.76C51.6417 253.72 51.1417 252.427 51.1417 250.88C51.1417 249.333 51.6417 248.047 52.6417 247.02C53.6417 245.98 54.9284 245.46 56.5017 245.46C58.0751 245.46 59.3617 245.98 60.3617 247.02C61.3617 248.047 61.8617 249.333 61.8617 250.88C61.8617 252.427 61.3617 253.72 60.3617 254.76ZM56.5017 254.22C57.3151 254.22 57.9484 253.92 58.4017 253.32C58.8684 252.707 59.1017 251.893 59.1017 250.88C59.1017 249.867 58.8684 249.053 58.4017 248.44C57.9484 247.827 57.3151 247.52 56.5017 247.52C55.6751 247.52 55.0351 247.827 54.5817 248.44C54.1284 249.04 53.9017 249.853 53.9017 250.88C53.9017 251.893 54.1284 252.707 54.5817 253.32C55.0351 253.92 55.6751 254.22 56.5017 254.22ZM65.7861 245.74V247.14H65.8461C66.5528 246.02 67.5661 245.46 68.8861 245.46C69.9394 245.46 70.7928 245.82 71.4461 246.54C72.0994 247.247 72.4261 248.167 72.4261 249.3V256H69.7061V249.7C69.7061 249.14 69.5461 248.687 69.2261 248.34C68.9194 247.993 68.4861 247.82 67.9261 247.82C67.3261 247.82 66.8261 248.04 66.4261 248.48C66.0394 248.92 65.8461 249.487 65.8461 250.18V256H63.1261V245.74H65.7861ZM76.7627 245.74V247.14H76.8227C77.5293 246.02 78.5427 245.46 79.8627 245.46C80.916 245.46 81.7693 245.82 82.4227 246.54C83.076 247.247 83.4027 248.167 83.4027 249.3V256H80.6827V249.7C80.6827 249.14 80.5227 248.687 80.2027 248.34C79.896 247.993 79.4627 247.82 78.9027 247.82C78.3027 247.82 77.8027 248.04 77.4027 248.48C77.016 248.92 76.8227 249.487 76.8227 250.18V256H74.1027V245.74H76.7627ZM89.8992 256.3C88.2459 256.3 86.9459 255.793 85.9992 254.78C85.0526 253.753 84.5792 252.447 84.5792 250.86C84.5792 249.327 85.0526 248.047 85.9992 247.02C86.9459 245.98 88.1592 245.46 89.6392 245.46C91.2526 245.46 92.4992 246.02 93.3792 247.14C94.2592 248.26 94.6992 249.76 94.6992 251.64H87.2592C87.3659 252.453 87.6392 253.087 88.0792 253.54C88.5192 253.98 89.1192 254.2 89.8792 254.2C90.8792 254.2 91.5392 253.78 91.8592 252.94H94.5392C94.3392 253.9 93.8326 254.7 93.0192 255.34C92.2059 255.98 91.1659 256.3 89.8992 256.3ZM89.6792 247.56C88.3592 247.56 87.5659 248.293 87.2992 249.76H91.8592C91.8192 249.107 91.5992 248.58 91.1992 248.18C90.7992 247.767 90.2926 247.56 89.6792 247.56ZM100.718 256.3C99.1315 256.3 97.8581 255.787 96.8981 254.76C95.9381 253.733 95.4581 252.44 95.4581 250.88C95.4581 249.32 95.9248 248.027 96.8581 247C97.8048 245.973 99.0448 245.46 100.578 245.46C101.871 245.46 102.925 245.8 103.738 246.48C104.551 247.16 105.051 248.073 105.238 249.22H102.578C102.485 248.753 102.271 248.373 101.938 248.08C101.605 247.787 101.191 247.64 100.698 247.64C99.8981 247.64 99.2848 247.927 98.8581 248.5C98.4315 249.073 98.2181 249.867 98.2181 250.88C98.2181 251.88 98.4248 252.673 98.8381 253.26C99.2515 253.833 99.8581 254.12 100.658 254.12C101.845 254.12 102.531 253.54 102.718 252.38H105.338C105.245 253.513 104.785 254.453 103.958 255.2C103.131 255.933 102.051 256.3 100.718 256.3ZM105.925 247.54V245.74H107.345V242.54H110.005V245.74H111.765V247.54H110.005V252.98C110.005 253.66 110.345 254 111.025 254L111.825 253.98V255.98C111.411 256.007 110.845 256.02 110.125 256.02C109.338 256.02 108.678 255.833 108.145 255.46C107.611 255.073 107.345 254.44 107.345 253.56V247.54H105.925ZM115.925 247.54V245.74H117.345V242.54H120.005V245.74H121.765V247.54H120.005V252.98C120.005 253.66 120.345 254 121.025 254L121.825 253.98V255.98C121.411 256.007 120.845 256.02 120.125 256.02C119.338 256.02 118.678 255.833 118.145 255.46C117.611 255.073 117.345 254.44 117.345 253.56V247.54H115.925ZM131.788 254.76C130.788 255.787 129.501 256.3 127.928 256.3C126.354 256.3 125.068 255.787 124.068 254.76C123.068 253.72 122.568 252.427 122.568 250.88C122.568 249.333 123.068 248.047 124.068 247.02C125.068 245.98 126.354 245.46 127.928 245.46C129.501 245.46 130.788 245.98 131.788 247.02C132.788 248.047 133.288 249.333 133.288 250.88C133.288 252.427 132.788 253.72 131.788 254.76ZM127.928 254.22C128.741 254.22 129.374 253.92 129.828 253.32C130.294 252.707 130.528 251.893 130.528 250.88C130.528 249.867 130.294 249.053 129.828 248.44C129.374 247.827 128.741 247.52 127.928 247.52C127.101 247.52 126.461 247.827 126.008 248.44C125.554 249.04 125.328 249.853 125.328 250.88C125.328 251.893 125.554 252.707 126.008 253.32C126.461 253.92 127.101 254.22 127.928 254.22ZM140.111 256L137.111 245.74H139.811L141.051 250.5L141.511 252.42H141.551C141.698 251.687 141.845 251.04 141.991 250.48L143.271 245.74H145.591L146.931 250.48L147.411 252.42H147.451C147.611 251.7 147.765 251.06 147.911 250.5L149.211 245.74H151.851L148.791 256H146.311L144.951 250.96L144.491 249.18H144.451C144.278 249.82 144.118 250.413 143.971 250.96L142.571 256H140.111ZM155.534 241.7V247.08H155.594C155.98 246.52 156.4 246.113 156.854 245.86C157.32 245.593 157.894 245.46 158.574 245.46C159.627 245.46 160.48 245.82 161.134 246.54C161.787 247.247 162.114 248.167 162.114 249.3V256H159.394V249.7C159.394 249.14 159.234 248.687 158.914 248.34C158.607 247.993 158.174 247.82 157.614 247.82C157.014 247.82 156.514 248.04 156.114 248.48C155.727 248.92 155.534 249.487 155.534 250.18V256H152.814V241.7H155.534ZM170.25 256C170.117 255.827 170.01 255.447 169.93 254.86H169.89C169.597 255.3 169.223 255.64 168.77 255.88C168.317 256.12 167.683 256.24 166.87 256.24C165.79 256.24 164.923 255.967 164.27 255.42C163.617 254.873 163.29 254.1 163.29 253.1C163.29 252.06 163.65 251.3 164.37 250.82C165.09 250.327 166.103 249.987 167.41 249.8C168.37 249.667 169.023 249.533 169.37 249.4C169.717 249.253 169.89 249 169.89 248.64C169.89 248.267 169.743 247.973 169.45 247.76C169.157 247.533 168.73 247.42 168.17 247.42C166.93 247.42 166.27 247.9 166.19 248.86H163.77C163.81 247.887 164.203 247.08 164.95 246.44C165.697 245.8 166.777 245.48 168.19 245.48C171.07 245.48 172.51 246.74 172.51 249.26V254.48C172.51 255.253 172.63 255.727 172.87 255.9V256H170.25ZM167.53 254.34C168.277 254.34 168.863 254.147 169.29 253.76C169.73 253.373 169.95 252.913 169.95 252.38V250.84C169.657 251.013 169.023 251.213 168.05 251.44C167.277 251.613 166.73 251.813 166.41 252.04C166.09 252.253 165.93 252.587 165.93 253.04C165.93 253.907 166.463 254.34 167.53 254.34ZM173.444 247.54V245.74H174.864V242.54H177.524V245.74H179.284V247.54H177.524V252.98C177.524 253.66 177.864 254 178.544 254L179.344 253.98V255.98C178.931 256.007 178.364 256.02 177.644 256.02C176.857 256.02 176.197 255.833 175.664 255.46C175.131 255.073 174.864 254.44 174.864 253.56V247.54H173.444ZM54.5519 279V268.74H57.1719V270.12H57.2319C57.8852 269.013 58.8785 268.46 60.2119 268.46C60.8519 268.46 61.4185 268.627 61.9119 268.96C62.4185 269.28 62.7985 269.713 63.0519 270.26H63.0919C63.8385 269.06 64.8652 268.46 66.1719 268.46C67.2385 268.46 68.0652 268.787 68.6519 269.44C69.2519 270.08 69.5519 270.967 69.5519 272.1V279H66.8319V272.56C66.8319 271.387 66.3052 270.8 65.2519 270.8C64.6785 270.8 64.2252 271.007 63.8919 271.42C63.5719 271.82 63.4119 272.36 63.4119 273.04V279H60.6919V272.56C60.6919 271.387 60.1652 270.8 59.1119 270.8C58.5652 270.8 58.1185 271.007 57.7719 271.42C57.4385 271.82 57.2719 272.36 57.2719 273.04V279H54.5519ZM79.9516 277.76C78.9516 278.787 77.6649 279.3 76.0916 279.3C74.5182 279.3 73.2316 278.787 72.2316 277.76C71.2316 276.72 70.7316 275.427 70.7316 273.88C70.7316 272.333 71.2316 271.047 72.2316 270.02C73.2316 268.98 74.5182 268.46 76.0916 268.46C77.6649 268.46 78.9516 268.98 79.9516 270.02C80.9516 271.047 81.4516 272.333 81.4516 273.88C81.4516 275.427 80.9516 276.72 79.9516 277.76ZM76.0916 277.22C76.9049 277.22 77.5382 276.92 77.9916 276.32C78.4582 275.707 78.6916 274.893 78.6916 273.88C78.6916 272.867 78.4582 272.053 77.9916 271.44C77.5382 270.827 76.9049 270.52 76.0916 270.52C75.2649 270.52 74.6249 270.827 74.1716 271.44C73.7182 272.04 73.4916 272.853 73.4916 273.88C73.4916 274.893 73.7182 275.707 74.1716 276.32C74.6249 276.92 75.2649 277.22 76.0916 277.22ZM85.143 279L81.583 268.74H84.343L85.983 274.06L86.443 275.7H86.483C86.5763 275.26 86.723 274.713 86.923 274.06L88.603 268.74H91.323L87.743 279H85.143ZM96.7742 279.3C95.1209 279.3 93.8209 278.793 92.8742 277.78C91.9276 276.753 91.4542 275.447 91.4542 273.86C91.4542 272.327 91.9276 271.047 92.8742 270.02C93.8209 268.98 95.0342 268.46 96.5142 268.46C98.1276 268.46 99.3742 269.02 100.254 270.14C101.134 271.26 101.574 272.76 101.574 274.64H94.1342C94.2409 275.453 94.5142 276.087 94.9542 276.54C95.3942 276.98 95.9942 277.2 96.7542 277.2C97.7542 277.2 98.4142 276.78 98.7342 275.94H101.414C101.214 276.9 100.708 277.7 99.8942 278.34C99.0809 278.98 98.0409 279.3 96.7742 279.3ZM96.5542 270.56C95.2342 270.56 94.4409 271.293 94.1742 272.76H98.7342C98.6942 272.107 98.4742 271.58 98.0742 271.18C97.6742 270.767 97.1676 270.56 96.5542 270.56ZM106.993 279.3C105.526 279.3 104.38 278.98 103.553 278.34C102.726 277.687 102.273 276.8 102.193 275.68H104.713C104.886 276.813 105.633 277.38 106.953 277.38C107.553 277.38 108.013 277.273 108.333 277.06C108.666 276.847 108.833 276.56 108.833 276.2C108.833 276.067 108.806 275.947 108.753 275.84C108.713 275.733 108.633 275.64 108.513 275.56C108.406 275.467 108.306 275.393 108.213 275.34C108.133 275.287 107.986 275.233 107.773 275.18C107.56 275.127 107.393 275.087 107.273 275.06C107.166 275.033 106.973 275 106.693 274.96C106.426 274.907 106.24 274.867 106.133 274.84C105.573 274.733 105.113 274.627 104.753 274.52C104.406 274.4 104.04 274.233 103.653 274.02C103.266 273.793 102.973 273.493 102.773 273.12C102.586 272.733 102.493 272.273 102.493 271.74C102.493 270.673 102.88 269.86 103.653 269.3C104.44 268.74 105.446 268.46 106.673 268.46C107.993 268.46 109.026 268.767 109.773 269.38C110.533 269.98 110.966 270.807 111.073 271.86H108.613C108.506 270.86 107.846 270.36 106.633 270.36C106.086 270.36 105.653 270.46 105.333 270.66C105.026 270.86 104.873 271.14 104.873 271.5C104.873 271.62 104.893 271.733 104.933 271.84C104.986 271.933 105.066 272.02 105.173 272.1C105.293 272.167 105.406 272.227 105.513 272.28C105.62 272.32 105.773 272.367 105.973 272.42C106.173 272.46 106.346 272.5 106.493 272.54C106.64 272.567 106.84 272.607 107.093 272.66C107.346 272.7 107.546 272.733 107.693 272.76C108.12 272.853 108.466 272.94 108.733 273.02C109.013 273.087 109.333 273.207 109.693 273.38C110.053 273.54 110.333 273.727 110.533 273.94C110.746 274.14 110.926 274.42 111.073 274.78C111.233 275.127 111.313 275.533 111.313 276C111.313 277.013 110.913 277.82 110.113 278.42C109.326 279.007 108.286 279.3 106.993 279.3ZM121.62 279.3C120.233 279.3 119.213 278.773 118.56 277.72H118.52V279H115.9V264.7H118.62V269.98H118.68C119.333 268.967 120.286 268.46 121.54 268.46C122.833 268.46 123.893 268.967 124.72 269.98C125.546 270.98 125.96 272.28 125.96 273.88C125.96 275.533 125.56 276.853 124.76 277.84C123.96 278.813 122.913 279.3 121.62 279.3ZM121.02 277.02C121.713 277.02 122.246 276.747 122.62 276.2C123.006 275.653 123.2 274.88 123.2 273.88C123.2 272.893 123 272.113 122.6 271.54C122.213 270.953 121.653 270.66 120.92 270.66C119.346 270.66 118.56 271.753 118.56 273.94C118.56 274.887 118.78 275.64 119.22 276.2C119.66 276.747 120.26 277.02 121.02 277.02ZM129.848 268.74V270.38H129.908C130.228 269.78 130.581 269.34 130.968 269.06C131.354 268.767 131.841 268.62 132.428 268.62C132.708 268.62 132.921 268.647 133.068 268.7V271.08H133.008C132.088 270.987 131.348 271.187 130.788 271.68C130.228 272.173 129.948 272.947 129.948 274V279H127.228V268.74H129.848ZM142.666 277.76C141.666 278.787 140.38 279.3 138.806 279.3C137.233 279.3 135.946 278.787 134.946 277.76C133.946 276.72 133.446 275.427 133.446 273.88C133.446 272.333 133.946 271.047 134.946 270.02C135.946 268.98 137.233 268.46 138.806 268.46C140.38 268.46 141.666 268.98 142.666 270.02C143.666 271.047 144.166 272.333 144.166 273.88C144.166 275.427 143.666 276.72 142.666 277.76ZM138.806 277.22C139.62 277.22 140.253 276.92 140.706 276.32C141.173 275.707 141.406 274.893 141.406 273.88C141.406 272.867 141.173 272.053 140.706 271.44C140.253 270.827 139.62 270.52 138.806 270.52C137.98 270.52 137.34 270.827 136.886 271.44C136.433 272.04 136.206 272.853 136.206 273.88C136.206 274.893 136.433 275.707 136.886 276.32C137.34 276.92 137.98 277.22 138.806 277.22ZM151.891 279C151.757 278.827 151.651 278.447 151.571 277.86H151.531C151.237 278.3 150.864 278.64 150.411 278.88C149.957 279.12 149.324 279.24 148.511 279.24C147.431 279.24 146.564 278.967 145.911 278.42C145.257 277.873 144.931 277.1 144.931 276.1C144.931 275.06 145.291 274.3 146.011 273.82C146.731 273.327 147.744 272.987 149.051 272.8C150.011 272.667 150.664 272.533 151.011 272.4C151.357 272.253 151.531 272 151.531 271.64C151.531 271.267 151.384 270.973 151.091 270.76C150.797 270.533 150.371 270.42 149.811 270.42C148.571 270.42 147.911 270.9 147.831 271.86H145.411C145.451 270.887 145.844 270.08 146.591 269.44C147.337 268.8 148.417 268.48 149.831 268.48C152.711 268.48 154.151 269.74 154.151 272.26V277.48C154.151 278.253 154.271 278.727 154.511 278.9V279H151.891ZM149.171 277.34C149.917 277.34 150.504 277.147 150.931 276.76C151.371 276.373 151.591 275.913 151.591 275.38V273.84C151.297 274.013 150.664 274.213 149.691 274.44C148.917 274.613 148.371 274.813 148.051 275.04C147.731 275.253 147.571 275.587 147.571 276.04C147.571 276.907 148.104 277.34 149.171 277.34ZM159.72 279.3C158.427 279.3 157.38 278.813 156.58 277.84C155.78 276.853 155.38 275.533 155.38 273.88C155.38 272.28 155.787 270.98 156.6 269.98C157.427 268.967 158.48 268.46 159.76 268.46C161.04 268.46 162.007 268.967 162.66 269.98H162.72V264.7H165.44V279H162.82V277.66H162.78C162.113 278.753 161.093 279.3 159.72 279.3ZM160.32 277.02C161.12 277.02 161.727 276.747 162.14 276.2C162.567 275.653 162.78 274.9 162.78 273.94C162.78 271.753 161.987 270.66 160.4 270.66C159.667 270.66 159.107 270.953 158.72 271.54C158.333 272.127 158.14 272.907 158.14 273.88C158.14 274.88 158.327 275.653 158.7 276.2C159.087 276.747 159.627 277.02 160.32 277.02ZM59.2394 305.36V291.74H61.8594V293.02H61.9194C62.6794 291.98 63.686 291.46 64.9394 291.46C66.286 291.46 67.366 291.96 68.1794 292.96C68.9927 293.96 69.3994 295.267 69.3994 296.88C69.3994 298.533 68.9927 299.853 68.1794 300.84C67.366 301.813 66.2927 302.3 64.9594 302.3C63.626 302.3 62.6394 301.813 61.9994 300.84H61.9594V305.36H59.2394ZM64.3794 300.04C65.0727 300.04 65.6194 299.767 66.0194 299.22C66.4327 298.673 66.6394 297.92 66.6394 296.96C66.6394 295.933 66.446 295.127 66.0594 294.54C65.6727 293.953 65.0794 293.66 64.2794 293.66C63.466 293.66 62.866 293.967 62.4794 294.58C62.0927 295.18 61.8994 295.973 61.8994 296.96C61.8994 297.907 62.1127 298.66 62.5394 299.22C62.966 299.767 63.5794 300.04 64.3794 300.04ZM79.3852 300.76C78.3852 301.787 77.0985 302.3 75.5252 302.3C73.9518 302.3 72.6652 301.787 71.6652 300.76C70.6652 299.72 70.1652 298.427 70.1652 296.88C70.1652 295.333 70.6652 294.047 71.6652 293.02C72.6652 291.98 73.9518 291.46 75.5252 291.46C77.0985 291.46 78.3852 291.98 79.3852 293.02C80.3852 294.047 80.8852 295.333 80.8852 296.88C80.8852 298.427 80.3852 299.72 79.3852 300.76ZM75.5252 300.22C76.3385 300.22 76.9718 299.92 77.4252 299.32C77.8918 298.707 78.1252 297.893 78.1252 296.88C78.1252 295.867 77.8918 295.053 77.4252 294.44C76.9718 293.827 76.3385 293.52 75.5252 293.52C74.6985 293.52 74.0585 293.827 73.6052 294.44C73.1518 295.04 72.9252 295.853 72.9252 296.88C72.9252 297.893 73.1518 298.707 73.6052 299.32C74.0585 299.92 74.6985 300.22 75.5252 300.22ZM82.1495 305.36V291.74H84.7695V293.02H84.8295C85.5895 291.98 86.5962 291.46 87.8495 291.46C89.1962 291.46 90.2762 291.96 91.0895 292.96C91.9029 293.96 92.3095 295.267 92.3095 296.88C92.3095 298.533 91.9029 299.853 91.0895 300.84C90.2762 301.813 89.2029 302.3 87.8695 302.3C86.5362 302.3 85.5495 301.813 84.9095 300.84H84.8695V305.36H82.1495ZM87.2895 300.04C87.9829 300.04 88.5295 299.767 88.9295 299.22C89.3429 298.673 89.5495 297.92 89.5495 296.96C89.5495 295.933 89.3562 295.127 88.9695 294.54C88.5829 293.953 87.9895 293.66 87.1895 293.66C86.3762 293.66 85.7762 293.967 85.3895 294.58C85.0029 295.18 84.8095 295.973 84.8095 296.96C84.8095 297.907 85.0229 298.66 85.4495 299.22C85.8762 299.767 86.4895 300.04 87.2895 300.04ZM102.675 302H100.055V300.8H99.9953C99.622 301.307 99.2086 301.68 98.7553 301.92C98.3153 302.16 97.7486 302.28 97.0553 302.28C95.9353 302.28 95.062 301.947 94.4353 301.28C93.8086 300.613 93.4953 299.713 93.4953 298.58V291.74H96.1953V298.12C96.1953 299.36 96.762 299.98 97.8953 299.98C98.522 299.98 99.022 299.767 99.3953 299.34C99.7686 298.913 99.9553 298.353 99.9553 297.66V291.74H102.675V302ZM104.475 302V287.7H107.195V302H104.475ZM115.445 302C115.312 301.827 115.205 301.447 115.125 300.86H115.085C114.792 301.3 114.419 301.64 113.965 301.88C113.512 302.12 112.879 302.24 112.065 302.24C110.985 302.24 110.119 301.967 109.465 301.42C108.812 300.873 108.485 300.1 108.485 299.1C108.485 298.06 108.845 297.3 109.565 296.82C110.285 296.327 111.299 295.987 112.605 295.8C113.565 295.667 114.219 295.533 114.565 295.4C114.912 295.253 115.085 295 115.085 294.64C115.085 294.267 114.939 293.973 114.645 293.76C114.352 293.533 113.925 293.42 113.365 293.42C112.125 293.42 111.465 293.9 111.385 294.86H108.965C109.005 293.887 109.399 293.08 110.145 292.44C110.892 291.8 111.972 291.48 113.385 291.48C116.265 291.48 117.705 292.74 117.705 295.26V300.48C117.705 301.253 117.825 301.727 118.065 301.9V302H115.445ZM112.725 300.34C113.472 300.34 114.059 300.147 114.485 299.76C114.925 299.373 115.145 298.913 115.145 298.38V296.84C114.852 297.013 114.219 297.213 113.245 297.44C112.472 297.613 111.925 297.813 111.605 298.04C111.285 298.253 111.125 298.587 111.125 299.04C111.125 299.907 111.659 300.34 112.725 300.34ZM118.639 293.54V291.74H120.059V288.54H122.719V291.74H124.479V293.54H122.719V298.98C122.719 299.66 123.059 300 123.739 300L124.539 299.98V301.98C124.126 302.007 123.559 302.02 122.839 302.02C122.053 302.02 121.393 301.833 120.859 301.46C120.326 301.073 120.059 300.44 120.059 299.56V293.54H118.639ZM125.88 302V291.74H128.6V302H125.88ZM125.88 290.14V287.7H128.6V290.14H125.88ZM139.073 300.76C138.073 301.787 136.786 302.3 135.213 302.3C133.639 302.3 132.353 301.787 131.353 300.76C130.353 299.72 129.853 298.427 129.853 296.88C129.853 295.333 130.353 294.047 131.353 293.02C132.353 291.98 133.639 291.46 135.213 291.46C136.786 291.46 138.073 291.98 139.073 293.02C140.073 294.047 140.573 295.333 140.573 296.88C140.573 298.427 140.073 299.72 139.073 300.76ZM135.213 300.22C136.026 300.22 136.659 299.92 137.113 299.32C137.579 298.707 137.813 297.893 137.813 296.88C137.813 295.867 137.579 295.053 137.113 294.44C136.659 293.827 136.026 293.52 135.213 293.52C134.386 293.52 133.746 293.827 133.293 294.44C132.839 295.04 132.613 295.853 132.613 296.88C132.613 297.893 132.839 298.707 133.293 299.32C133.746 299.92 134.386 300.22 135.213 300.22ZM144.497 291.74V293.14H144.557C145.264 292.02 146.277 291.46 147.597 291.46C148.65 291.46 149.504 291.82 150.157 292.54C150.81 293.247 151.137 294.167 151.137 295.3V302H148.417V295.7C148.417 295.14 148.257 294.687 147.937 294.34C147.63 293.993 147.197 293.82 146.637 293.82C146.037 293.82 145.537 294.04 145.137 294.48C144.75 294.92 144.557 295.487 144.557 296.18V302H141.837V291.74H144.497ZM156.974 302.3C155.507 302.3 154.36 301.98 153.534 301.34C152.707 300.687 152.254 299.8 152.174 298.68H154.694C154.867 299.813 155.614 300.38 156.934 300.38C157.534 300.38 157.994 300.273 158.314 300.06C158.647 299.847 158.814 299.56 158.814 299.2C158.814 299.067 158.787 298.947 158.734 298.84C158.694 298.733 158.614 298.64 158.494 298.56C158.387 298.467 158.287 298.393 158.194 298.34C158.114 298.287 157.967 298.233 157.754 298.18C157.54 298.127 157.374 298.087 157.254 298.06C157.147 298.033 156.954 298 156.674 297.96C156.407 297.907 156.22 297.867 156.114 297.84C155.554 297.733 155.094 297.627 154.734 297.52C154.387 297.4 154.02 297.233 153.634 297.02C153.247 296.793 152.954 296.493 152.754 296.12C152.567 295.733 152.474 295.273 152.474 294.74C152.474 293.673 152.86 292.86 153.634 292.3C154.42 291.74 155.427 291.46 156.654 291.46C157.974 291.46 159.007 291.767 159.754 292.38C160.514 292.98 160.947 293.807 161.054 294.86H158.594C158.487 293.86 157.827 293.36 156.614 293.36C156.067 293.36 155.634 293.46 155.314 293.66C155.007 293.86 154.854 294.14 154.854 294.5C154.854 294.62 154.874 294.733 154.914 294.84C154.967 294.933 155.047 295.02 155.154 295.1C155.274 295.167 155.387 295.227 155.494 295.28C155.6 295.32 155.754 295.367 155.954 295.42C156.154 295.46 156.327 295.5 156.474 295.54C156.62 295.567 156.82 295.607 157.074 295.66C157.327 295.7 157.527 295.733 157.674 295.76C158.1 295.853 158.447 295.94 158.714 296.02C158.994 296.087 159.314 296.207 159.674 296.38C160.034 296.54 160.314 296.727 160.514 296.94C160.727 297.14 160.907 297.42 161.054 297.78C161.214 298.127 161.294 298.533 161.294 299C161.294 300.013 160.894 300.82 160.094 301.42C159.307 302.007 158.267 302.3 156.974 302.3Z" fill="black"/>
<rect x="4.5" y="4.5" width="216" height="216" rx="108" stroke="#E1007D" stroke-width="9"/>
<path d="M50.46 127.07V106.64H55.14V108.5H55.23C56.41 106.96 57.96 106.19 59.88 106.19C61.88 106.19 63.47 106.96 64.65 108.5C65.85 110.02 66.45 111.96 66.45 114.32C66.45 116.8 65.84 118.78 64.62 120.26C63.4 121.74 61.78 122.48 59.76 122.48C57.88 122.48 56.43 121.79 55.41 120.41H55.35V127.07H50.46ZM58.5 118.7C59.44 118.7 60.17 118.33 60.69 117.59C61.23 116.83 61.5 115.8 61.5 114.5C61.5 113.14 61.24 112.07 60.72 111.29C60.2 110.51 59.43 110.12 58.41 110.12C57.39 110.12 56.6 110.53 56.04 111.35C55.48 112.15 55.2 113.2 55.2 114.5C55.2 115.76 55.49 116.78 56.07 117.56C56.65 118.32 57.46 118.7 58.5 118.7ZM73.1968 117.74C73.7568 118.58 74.5568 119 75.5968 119C76.6368 119 77.4368 118.58 77.9968 117.74C78.5768 116.9 78.8668 115.77 78.8668 114.35C78.8668 112.93 78.5768 111.8 77.9968 110.96C77.4368 110.1 76.6368 109.67 75.5968 109.67C74.5568 109.67 73.7568 110.09 73.1968 110.93C72.6368 111.77 72.3568 112.91 72.3568 114.35C72.3568 115.77 72.6368 116.9 73.1968 117.74ZM81.5368 120.17C80.0368 121.71 78.0668 122.48 75.6268 122.48C73.1868 122.48 71.2068 121.71 69.6868 120.17C68.1668 118.63 67.4068 116.69 67.4068 114.35C67.4068 112.01 68.1668 110.07 69.6868 108.53C71.2068 106.99 73.1868 106.22 75.6268 106.22C78.0668 106.22 80.0368 106.99 81.5368 108.53C83.0568 110.07 83.8168 112.01 83.8168 114.35C83.8168 116.69 83.0568 118.63 81.5368 120.17ZM85.4698 127.07V106.64H90.1498V108.5H90.2398C91.4198 106.96 92.9698 106.19 94.8898 106.19C96.8898 106.19 98.4798 106.96 99.6598 108.5C100.86 110.02 101.46 111.96 101.46 114.32C101.46 116.8 100.85 118.78 99.6298 120.26C98.4098 121.74 96.7898 122.48 94.7698 122.48C92.8898 122.48 91.4398 121.79 90.4198 120.41H90.3598V127.07H85.4698ZM93.5098 118.7C94.4498 118.7 95.1798 118.33 95.6998 117.59C96.2398 116.83 96.5098 115.8 96.5098 114.5C96.5098 113.14 96.2498 112.07 95.7298 111.29C95.2098 110.51 94.4398 110.12 93.4198 110.12C92.3998 110.12 91.6098 110.53 91.0498 111.35C90.4898 112.15 90.2098 113.2 90.2098 114.5C90.2098 115.76 90.4998 116.78 91.0798 117.56C91.6598 118.32 92.4698 118.7 93.5098 118.7ZM108.387 122.45C106.647 122.45 105.307 121.94 104.367 120.92C103.447 119.88 102.987 118.48 102.987 116.72V106.64H107.847V115.7C107.847 117.44 108.617 118.31 110.157 118.31C110.997 118.31 111.657 118.03 112.137 117.47C112.617 116.89 112.857 116.14 112.857 115.22V106.64H117.747V122H113.067V120.11H112.977C111.817 121.67 110.287 122.45 108.387 122.45ZM120.129 122V100.55H125.079V122H120.129ZM127.452 122V106.64H132.342V122H127.452ZM127.452 104.51V100.55H132.342V104.51H127.452ZM141.229 122.48C138.989 122.48 137.199 122 135.859 121.04C134.539 120.06 133.839 118.72 133.759 117.02H138.379C138.559 118.54 139.499 119.3 141.199 119.3C141.939 119.3 142.519 119.17 142.939 118.91C143.379 118.63 143.599 118.25 143.599 117.77C143.599 117.61 143.579 117.47 143.539 117.35C143.499 117.23 143.429 117.12 143.329 117.02C143.229 116.92 143.129 116.83 143.029 116.75C142.949 116.67 142.819 116.6 142.639 116.54C142.459 116.46 142.299 116.4 142.159 116.36C142.039 116.32 141.849 116.28 141.589 116.24C141.349 116.18 141.159 116.14 141.019 116.12C140.879 116.08 140.659 116.04 140.359 116C140.059 115.94 139.839 115.9 139.699 115.88C139.059 115.78 138.519 115.68 138.079 115.58C137.639 115.46 137.149 115.28 136.609 115.04C136.089 114.8 135.659 114.53 135.319 114.23C134.999 113.91 134.729 113.49 134.509 112.97C134.289 112.43 134.179 111.81 134.179 111.11C134.179 109.55 134.809 108.34 136.069 107.48C137.329 106.62 138.909 106.19 140.809 106.19C142.949 106.19 144.609 106.63 145.789 107.51C146.969 108.37 147.619 109.57 147.739 111.11H143.239C143.079 109.91 142.259 109.31 140.779 109.31C140.139 109.31 139.619 109.43 139.219 109.67C138.839 109.91 138.649 110.26 138.649 110.72C138.649 110.84 138.669 110.95 138.709 111.05C138.749 111.15 138.809 111.24 138.889 111.32C138.989 111.4 139.079 111.47 139.159 111.53C139.259 111.59 139.389 111.65 139.549 111.71C139.709 111.77 139.849 111.82 139.969 111.86C140.109 111.9 140.289 111.94 140.509 111.98C140.749 112.02 140.939 112.06 141.079 112.1C141.239 112.12 141.449 112.16 141.709 112.22C141.969 112.26 142.179 112.29 142.339 112.31C143.019 112.43 143.579 112.54 144.019 112.64C144.459 112.74 144.969 112.92 145.549 113.18C146.149 113.42 146.619 113.71 146.959 114.05C147.299 114.37 147.589 114.82 147.829 115.4C148.089 115.96 148.219 116.62 148.219 117.38C148.219 119.02 147.569 120.28 146.269 121.16C144.989 122.04 143.309 122.48 141.229 122.48ZM149.806 122V106.64H154.486V108.83H154.576C155.636 107.07 157.186 106.19 159.226 106.19C161.246 106.19 162.686 107.09 163.546 108.89H163.606C164.766 107.09 166.376 106.19 168.436 106.19C170.136 106.19 171.426 106.72 172.306 107.78C173.206 108.82 173.656 110.23 173.656 112.01V122H168.766V112.88C168.766 111.14 168.046 110.27 166.606 110.27C165.846 110.27 165.246 110.56 164.806 111.14C164.386 111.7 164.176 112.45 164.176 113.39V122H159.286V112.88C159.286 111.14 158.566 110.27 157.126 110.27C156.366 110.27 155.766 110.56 155.326 111.14C154.906 111.7 154.696 112.45 154.696 113.39V122H149.806Z" fill="black"/>
<path d="M112 174V199M112 199L122 189M112 199L102 189" stroke="black" stroke-width="7" stroke-linecap="round" stroke-linejoin="round"/>
</svg>
