<svg width="225" height="371" viewBox="0 0 225 371" fill="none" xmlns="http://www.w3.org/2000/svg">
<rect x="2" y="151" width="220" height="220" rx="110" fill="#F0EBEB"/>
<path d="M51.3058 259.36V245.74H53.9258V247.02H53.9858C54.7458 245.98 55.7524 245.46 57.0058 245.46C58.3524 245.46 59.4324 245.96 60.2458 246.96C61.0591 247.96 61.4658 249.267 61.4658 250.88C61.4658 252.533 61.0591 253.853 60.2458 254.84C59.4324 255.813 58.3591 256.3 57.0258 256.3C55.6924 256.3 54.7058 255.813 54.0658 254.84H54.0258V259.36H51.3058ZM56.4458 254.04C57.1391 254.04 57.6858 253.767 58.0858 253.22C58.4991 252.673 58.7058 251.92 58.7058 250.96C58.7058 249.933 58.5124 249.127 58.1258 248.54C57.7391 247.953 57.1458 247.66 56.3458 247.66C55.5324 247.66 54.9324 247.967 54.5458 248.58C54.1591 249.18 53.9658 249.973 53.9658 250.96C53.9658 251.907 54.1791 252.66 54.6058 253.22C55.0324 253.767 55.6458 254.04 56.4458 254.04ZM62.7716 256V241.7H65.4916V256H62.7716ZM73.7423 256C73.609 255.827 73.5023 255.447 73.4223 254.86H73.3823C73.089 255.3 72.7157 255.64 72.2623 255.88C71.809 256.12 71.1757 256.24 70.3623 256.24C69.2823 256.24 68.4157 255.967 67.7623 255.42C67.109 254.873 66.7823 254.1 66.7823 253.1C66.7823 252.06 67.1423 251.3 67.8623 250.82C68.5823 250.327 69.5957 249.987 70.9023 249.8C71.8623 249.667 72.5157 249.533 72.8623 249.4C73.209 249.253 73.3823 249 73.3823 248.64C73.3823 248.267 73.2357 247.973 72.9423 247.76C72.649 247.533 72.2223 247.42 71.6623 247.42C70.4223 247.42 69.7623 247.9 69.6823 248.86H67.2623C67.3023 247.887 67.6957 247.08 68.4423 246.44C69.189 245.8 70.269 245.48 71.6823 245.48C74.5623 245.48 76.0023 246.74 76.0023 249.26V254.48C76.0023 255.253 76.1223 255.727 76.3623 255.9V256H73.7423ZM71.0223 254.34C71.769 254.34 72.3557 254.147 72.7823 253.76C73.2223 253.373 73.4423 252.913 73.4423 252.38V250.84C73.149 251.013 72.5157 251.213 71.5423 251.44C70.769 251.613 70.2223 251.813 69.9023 252.04C69.5823 252.253 69.4223 252.587 69.4223 253.04C69.4223 253.907 69.9557 254.34 71.0223 254.34ZM77.8539 259.36V257.22H78.8139C79.8272 257.22 80.3339 256.753 80.3339 255.82C80.3339 255.367 80.0739 254.44 79.5539 253.04L76.7939 245.74H79.6539L81.1739 250.36L81.8339 252.6H81.8739C82.0606 251.733 82.2606 250.987 82.4739 250.36L83.9139 245.74H86.6539L83.0739 256.26C82.6739 257.433 82.2206 258.24 81.7139 258.68C81.2206 259.133 80.4672 259.36 79.4539 259.36H77.8539ZM97.3947 256C97.2614 255.827 97.1547 255.447 97.0747 254.86H97.0347C96.7414 255.3 96.368 255.64 95.9147 255.88C95.4614 256.12 94.828 256.24 94.0147 256.24C92.9347 256.24 92.068 255.967 91.4147 255.42C90.7614 254.873 90.4347 254.1 90.4347 253.1C90.4347 252.06 90.7947 251.3 91.5147 250.82C92.2347 250.327 93.248 249.987 94.5547 249.8C95.5147 249.667 96.168 249.533 96.5147 249.4C96.8614 249.253 97.0347 249 97.0347 248.64C97.0347 248.267 96.888 247.973 96.5947 247.76C96.3014 247.533 95.8747 247.42 95.3147 247.42C94.0747 247.42 93.4147 247.9 93.3347 248.86H90.9147C90.9547 247.887 91.348 247.08 92.0947 246.44C92.8414 245.8 93.9214 245.48 95.3347 245.48C98.2147 245.48 99.6547 246.74 99.6547 249.26V254.48C99.6547 255.253 99.7747 255.727 100.015 255.9V256H97.3947ZM94.6747 254.34C95.4214 254.34 96.008 254.147 96.4347 253.76C96.8747 253.373 97.0947 252.913 97.0947 252.38V250.84C96.8014 251.013 96.168 251.213 95.1947 251.44C94.4214 251.613 93.8747 251.813 93.5547 252.04C93.2347 252.253 93.0747 252.587 93.0747 253.04C93.0747 253.907 93.608 254.34 94.6747 254.34ZM107.363 245.74V247.38H107.423C107.743 246.78 108.097 246.34 108.483 246.06C108.87 245.767 109.357 245.62 109.943 245.62C110.223 245.62 110.437 245.647 110.583 245.7V248.08H110.523C109.603 247.987 108.863 248.187 108.303 248.68C107.743 249.173 107.463 249.947 107.463 251V256H104.743V245.74H107.363ZM116.282 256.3C114.629 256.3 113.329 255.793 112.382 254.78C111.435 253.753 110.962 252.447 110.962 250.86C110.962 249.327 111.435 248.047 112.382 247.02C113.329 245.98 114.542 245.46 116.022 245.46C117.635 245.46 118.882 246.02 119.762 247.14C120.642 248.26 121.082 249.76 121.082 251.64H113.642C113.749 252.453 114.022 253.087 114.462 253.54C114.902 253.98 115.502 254.2 116.262 254.2C117.262 254.2 117.922 253.78 118.242 252.94H120.922C120.722 253.9 120.215 254.7 119.402 255.34C118.589 255.98 117.549 256.3 116.282 256.3ZM116.062 247.56C114.742 247.56 113.949 248.293 113.682 249.76H118.242C118.202 249.107 117.982 248.58 117.582 248.18C117.182 247.767 116.675 247.56 116.062 247.56ZM128.801 256C128.668 255.827 128.561 255.447 128.481 254.86H128.441C128.148 255.3 127.774 255.64 127.321 255.88C126.868 256.12 126.234 256.24 125.421 256.24C124.341 256.24 123.474 255.967 122.821 255.42C122.168 254.873 121.841 254.1 121.841 253.1C121.841 252.06 122.201 251.3 122.921 250.82C123.641 250.327 124.654 249.987 125.961 249.8C126.921 249.667 127.574 249.533 127.921 249.4C128.268 249.253 128.441 249 128.441 248.64C128.441 248.267 128.294 247.973 128.001 247.76C127.708 247.533 127.281 247.42 126.721 247.42C125.481 247.42 124.821 247.9 124.741 248.86H122.321C122.361 247.887 122.754 247.08 123.501 246.44C124.248 245.8 125.328 245.48 126.741 245.48C129.621 245.48 131.061 246.74 131.061 249.26V254.48C131.061 255.253 131.181 255.727 131.421 255.9V256H128.801ZM126.081 254.34C126.828 254.34 127.414 254.147 127.841 253.76C128.281 253.373 128.501 252.913 128.501 252.38V250.84C128.208 251.013 127.574 251.213 126.601 251.44C125.828 251.613 125.281 251.813 124.961 252.04C124.641 252.253 124.481 252.587 124.481 253.04C124.481 253.907 125.014 254.34 126.081 254.34ZM132.83 256V241.7H135.55V256H132.83ZM147.16 256C147.027 255.827 146.92 255.447 146.84 254.86H146.8C146.507 255.3 146.134 255.64 145.68 255.88C145.227 256.12 144.594 256.24 143.78 256.24C142.7 256.24 141.834 255.967 141.18 255.42C140.527 254.873 140.2 254.1 140.2 253.1C140.2 252.06 140.56 251.3 141.28 250.82C142 250.327 143.014 249.987 144.32 249.8C145.28 249.667 145.934 249.533 146.28 249.4C146.627 249.253 146.8 249 146.8 248.64C146.8 248.267 146.654 247.973 146.36 247.76C146.067 247.533 145.64 247.42 145.08 247.42C143.84 247.42 143.18 247.9 143.1 248.86H140.68C140.72 247.887 141.114 247.08 141.86 246.44C142.607 245.8 143.687 245.48 145.1 245.48C147.98 245.48 149.42 246.74 149.42 249.26V254.48C149.42 255.253 149.54 255.727 149.78 255.9V256H147.16ZM144.44 254.34C145.187 254.34 145.774 254.147 146.2 253.76C146.64 253.373 146.86 252.913 146.86 252.38V250.84C146.567 251.013 145.934 251.213 144.96 251.44C144.187 251.613 143.64 251.813 143.32 252.04C143 252.253 142.84 252.587 142.84 253.04C142.84 253.907 143.374 254.34 144.44 254.34ZM153.81 245.74V247.14H153.87C154.576 246.02 155.59 245.46 156.91 245.46C157.963 245.46 158.816 245.82 159.47 246.54C160.123 247.247 160.45 248.167 160.45 249.3V256H157.73V249.7C157.73 249.14 157.57 248.687 157.25 248.34C156.943 247.993 156.51 247.82 155.95 247.82C155.35 247.82 154.85 248.04 154.45 248.48C154.063 248.92 153.87 249.487 153.87 250.18V256H151.15V245.74H153.81ZM165.966 256.3C164.673 256.3 163.626 255.813 162.826 254.84C162.026 253.853 161.626 252.533 161.626 250.88C161.626 249.28 162.033 247.98 162.846 246.98C163.673 245.967 164.726 245.46 166.006 245.46C167.286 245.46 168.253 245.967 168.906 246.98H168.966V241.7H171.686V256H169.066V254.66H169.026C168.359 255.753 167.339 256.3 165.966 256.3ZM166.566 254.02C167.366 254.02 167.973 253.747 168.386 253.2C168.813 252.653 169.026 251.9 169.026 250.94C169.026 248.753 168.233 247.66 166.646 247.66C165.913 247.66 165.353 247.953 164.966 248.54C164.579 249.127 164.386 249.907 164.386 250.88C164.386 251.88 164.573 252.653 164.946 253.2C165.333 253.747 165.873 254.02 166.566 254.02ZM50.9008 279L47.3408 268.74H50.1008L51.7408 274.06L52.2008 275.7H52.2408C52.3341 275.26 52.4808 274.713 52.6808 274.06L54.3608 268.74H57.0808L53.5008 279H50.9008ZM64.172 279C64.0387 278.827 63.932 278.447 63.852 277.86H63.812C63.5187 278.3 63.1454 278.64 62.692 278.88C62.2387 279.12 61.6054 279.24 60.792 279.24C59.712 279.24 58.8454 278.967 58.192 278.42C57.5387 277.873 57.212 277.1 57.212 276.1C57.212 275.06 57.572 274.3 58.292 273.82C59.012 273.327 60.0254 272.987 61.332 272.8C62.292 272.667 62.9454 272.533 63.292 272.4C63.6387 272.253 63.812 272 63.812 271.64C63.812 271.267 63.6654 270.973 63.372 270.76C63.0787 270.533 62.652 270.42 62.092 270.42C60.852 270.42 60.192 270.9 60.112 271.86H57.692C57.732 270.887 58.1254 270.08 58.872 269.44C59.6187 268.8 60.6987 268.48 62.112 268.48C64.992 268.48 66.432 269.74 66.432 272.26V277.48C66.432 278.253 66.552 278.727 66.792 278.9V279H64.172ZM61.452 277.34C62.1987 277.34 62.7854 277.147 63.212 276.76C63.652 276.373 63.872 275.913 63.872 275.38V273.84C63.5787 274.013 62.9454 274.213 61.972 274.44C61.1987 274.613 60.652 274.813 60.332 275.04C60.012 275.253 59.852 275.587 59.852 276.04C59.852 276.907 60.3854 277.34 61.452 277.34ZM68.2013 279V264.7H70.9213V279H68.2013ZM81.812 279H79.192V277.8H79.132C78.7587 278.307 78.3454 278.68 77.892 278.92C77.452 279.16 76.8854 279.28 76.192 279.28C75.072 279.28 74.1987 278.947 73.572 278.28C72.9454 277.613 72.632 276.713 72.632 275.58V268.74H75.332V275.12C75.332 276.36 75.8987 276.98 77.032 276.98C77.6587 276.98 78.1587 276.767 78.532 276.34C78.9054 275.913 79.092 275.353 79.092 274.66V268.74H81.812V279ZM90.0314 279C89.8981 278.827 89.7914 278.447 89.7114 277.86H89.6714C89.3781 278.3 89.0047 278.64 88.5514 278.88C88.0981 279.12 87.4647 279.24 86.6514 279.24C85.5714 279.24 84.7047 278.967 84.0514 278.42C83.3981 277.873 83.0714 277.1 83.0714 276.1C83.0714 275.06 83.4314 274.3 84.1514 273.82C84.8714 273.327 85.8847 272.987 87.1914 272.8C88.1514 272.667 88.8047 272.533 89.1514 272.4C89.4981 272.253 89.6714 272 89.6714 271.64C89.6714 271.267 89.5247 270.973 89.2314 270.76C88.9381 270.533 88.5114 270.42 87.9514 270.42C86.7114 270.42 86.0514 270.9 85.9714 271.86H83.5514C83.5914 270.887 83.9847 270.08 84.7314 269.44C85.4781 268.8 86.5581 268.48 87.9714 268.48C90.8514 268.48 92.2914 269.74 92.2914 272.26V277.48C92.2914 278.253 92.4114 278.727 92.6514 278.9V279H90.0314ZM87.3114 277.34C88.0581 277.34 88.6447 277.147 89.0714 276.76C89.5114 276.373 89.7314 275.913 89.7314 275.38V273.84C89.4381 274.013 88.8047 274.213 87.8314 274.44C87.0581 274.613 86.5114 274.813 86.1914 275.04C85.8714 275.253 85.7114 275.587 85.7114 276.04C85.7114 276.907 86.2447 277.34 87.3114 277.34ZM99.7406 279.3C98.354 279.3 97.334 278.773 96.6806 277.72H96.6406V279H94.0206V264.7H96.7406V269.98H96.8006C97.454 268.967 98.4073 268.46 99.6606 268.46C100.954 268.46 102.014 268.967 102.841 269.98C103.667 270.98 104.081 272.28 104.081 273.88C104.081 275.533 103.681 276.853 102.881 277.84C102.081 278.813 101.034 279.3 99.7406 279.3ZM99.1406 277.02C99.834 277.02 100.367 276.747 100.741 276.2C101.127 275.653 101.321 274.88 101.321 273.88C101.321 272.893 101.121 272.113 100.721 271.54C100.334 270.953 99.774 270.66 99.0406 270.66C97.4673 270.66 96.6806 271.753 96.6806 273.94C96.6806 274.887 96.9006 275.64 97.3406 276.2C97.7806 276.747 98.3806 277.02 99.1406 277.02ZM105.389 279V264.7H108.109V279H105.389ZM114.72 279.3C113.066 279.3 111.766 278.793 110.82 277.78C109.873 276.753 109.4 275.447 109.4 273.86C109.4 272.327 109.873 271.047 110.82 270.02C111.766 268.98 112.98 268.46 114.46 268.46C116.073 268.46 117.32 269.02 118.2 270.14C119.08 271.26 119.52 272.76 119.52 274.64H112.08C112.186 275.453 112.46 276.087 112.9 276.54C113.34 276.98 113.94 277.2 114.7 277.2C115.7 277.2 116.36 276.78 116.68 275.94H119.36C119.16 276.9 118.653 277.7 117.84 278.34C117.026 278.98 115.986 279.3 114.72 279.3ZM114.5 270.56C113.18 270.56 112.386 271.293 112.12 272.76H116.68C116.64 272.107 116.42 271.58 116.02 271.18C115.62 270.767 115.113 270.56 114.5 270.56ZM126.758 268.74V270.38H126.818C127.138 269.78 127.491 269.34 127.878 269.06C128.264 268.767 128.751 268.62 129.338 268.62C129.618 268.62 129.831 268.647 129.978 268.7V271.08H129.918C128.998 270.987 128.258 271.187 127.698 271.68C127.138 272.173 126.858 272.947 126.858 274V279H124.138V268.74H126.758ZM139.577 277.76C138.577 278.787 137.29 279.3 135.717 279.3C134.143 279.3 132.857 278.787 131.857 277.76C130.857 276.72 130.357 275.427 130.357 273.88C130.357 272.333 130.857 271.047 131.857 270.02C132.857 268.98 134.143 268.46 135.717 268.46C137.29 268.46 138.577 268.98 139.577 270.02C140.577 271.047 141.077 272.333 141.077 273.88C141.077 275.427 140.577 276.72 139.577 277.76ZM135.717 277.22C136.53 277.22 137.163 276.92 137.617 276.32C138.083 275.707 138.317 274.893 138.317 273.88C138.317 272.867 138.083 272.053 137.617 271.44C137.163 270.827 136.53 270.52 135.717 270.52C134.89 270.52 134.25 270.827 133.797 271.44C133.343 272.04 133.117 272.853 133.117 273.88C133.117 274.893 133.343 275.707 133.797 276.32C134.25 276.92 134.89 277.22 135.717 277.22ZM142.381 279V264.7H145.101V279H142.381ZM151.712 279.3C150.058 279.3 148.758 278.793 147.812 277.78C146.865 276.753 146.392 275.447 146.392 273.86C146.392 272.327 146.865 271.047 147.812 270.02C148.758 268.98 149.972 268.46 151.452 268.46C153.065 268.46 154.312 269.02 155.192 270.14C156.072 271.26 156.512 272.76 156.512 274.64H149.072C149.178 275.453 149.452 276.087 149.892 276.54C150.332 276.98 150.932 277.2 151.692 277.2C152.692 277.2 153.352 276.78 153.672 275.94H156.352C156.152 276.9 155.645 277.7 154.832 278.34C154.018 278.98 152.978 279.3 151.712 279.3ZM151.492 270.56C150.172 270.56 149.378 271.293 149.112 272.76H153.672C153.632 272.107 153.412 271.58 153.012 271.18C152.612 270.767 152.105 270.56 151.492 270.56ZM161.13 279V268.74H163.85V279H161.13ZM161.13 267.14V264.7H163.85V267.14H161.13ZM168.263 268.74V270.14H168.323C169.029 269.02 170.043 268.46 171.363 268.46C172.416 268.46 173.269 268.82 173.923 269.54C174.576 270.247 174.903 271.167 174.903 272.3V279H172.183V272.7C172.183 272.14 172.023 271.687 171.703 271.34C171.396 270.993 170.963 270.82 170.403 270.82C169.803 270.82 169.303 271.04 168.903 271.48C168.516 271.92 168.323 272.487 168.323 273.18V279H165.603V268.74H168.263ZM54.587 305.36V291.74H57.207V293.02H57.267C58.027 291.98 59.0337 291.46 60.287 291.46C61.6337 291.46 62.7137 291.96 63.527 292.96C64.3404 293.96 64.747 295.267 64.747 296.88C64.747 298.533 64.3404 299.853 63.527 300.84C62.7137 301.813 61.6404 302.3 60.307 302.3C58.9737 302.3 57.987 301.813 57.347 300.84H57.307V305.36H54.587ZM59.727 300.04C60.4204 300.04 60.967 299.767 61.367 299.22C61.7804 298.673 61.987 297.92 61.987 296.96C61.987 295.933 61.7937 295.127 61.407 294.54C61.0204 293.953 60.427 293.66 59.627 293.66C58.8137 293.66 58.2137 293.967 57.827 294.58C57.4404 295.18 57.247 295.973 57.247 296.96C57.247 297.907 57.4604 298.66 57.887 299.22C58.3137 299.767 58.927 300.04 59.727 300.04ZM70.8328 302.3C69.1795 302.3 67.8795 301.793 66.9328 300.78C65.9861 299.753 65.5128 298.447 65.5128 296.86C65.5128 295.327 65.9861 294.047 66.9328 293.02C67.8795 291.98 69.0928 291.46 70.5728 291.46C72.1861 291.46 73.4328 292.02 74.3128 293.14C75.1928 294.26 75.6328 295.76 75.6328 297.64H68.1928C68.2995 298.453 68.5728 299.087 69.0128 299.54C69.4528 299.98 70.0528 300.2 70.8128 300.2C71.8128 300.2 72.4728 299.78 72.7928 298.94H75.4728C75.2728 299.9 74.7661 300.7 73.9528 301.34C73.1395 301.98 72.0995 302.3 70.8328 302.3ZM70.6128 293.56C69.2928 293.56 68.4995 294.293 68.2328 295.76H72.7928C72.7528 295.107 72.5328 294.58 72.1328 294.18C71.7328 293.767 71.2261 293.56 70.6128 293.56ZM85.6117 300.76C84.6117 301.787 83.3251 302.3 81.7517 302.3C80.1784 302.3 78.8917 301.787 77.8917 300.76C76.8917 299.72 76.3917 298.427 76.3917 296.88C76.3917 295.333 76.8917 294.047 77.8917 293.02C78.8917 291.98 80.1784 291.46 81.7517 291.46C83.3251 291.46 84.6117 291.98 85.6117 293.02C86.6117 294.047 87.1117 295.333 87.1117 296.88C87.1117 298.427 86.6117 299.72 85.6117 300.76ZM81.7517 300.22C82.5651 300.22 83.1984 299.92 83.6517 299.32C84.1184 298.707 84.3517 297.893 84.3517 296.88C84.3517 295.867 84.1184 295.053 83.6517 294.44C83.1984 293.827 82.5651 293.52 81.7517 293.52C80.9251 293.52 80.2851 293.827 79.8317 294.44C79.3784 295.04 79.1517 295.853 79.1517 296.88C79.1517 297.893 79.3784 298.707 79.8317 299.32C80.2851 299.92 80.9251 300.22 81.7517 300.22ZM88.3761 305.36V291.74H90.9961V293.02H91.0561C91.8161 291.98 92.8228 291.46 94.0761 291.46C95.4228 291.46 96.5028 291.96 97.3161 292.96C98.1294 293.96 98.5361 295.267 98.5361 296.88C98.5361 298.533 98.1294 299.853 97.3161 300.84C96.5028 301.813 95.4294 302.3 94.0961 302.3C92.7628 302.3 91.7761 301.813 91.1361 300.84H91.0961V305.36H88.3761ZM93.5161 300.04C94.2094 300.04 94.7561 299.767 95.1561 299.22C95.5694 298.673 95.7761 297.92 95.7761 296.96C95.7761 295.933 95.5828 295.127 95.1961 294.54C94.8094 293.953 94.2161 293.66 93.4161 293.66C92.6028 293.66 92.0028 293.967 91.6161 294.58C91.2294 295.18 91.0361 295.973 91.0361 296.96C91.0361 297.907 91.2494 298.66 91.6761 299.22C92.1028 299.767 92.7161 300.04 93.5161 300.04ZM99.8419 302V287.7H102.562V302H99.8419ZM109.173 302.3C107.519 302.3 106.219 301.793 105.273 300.78C104.326 299.753 103.853 298.447 103.853 296.86C103.853 295.327 104.326 294.047 105.273 293.02C106.219 291.98 107.433 291.46 108.913 291.46C110.526 291.46 111.773 292.02 112.653 293.14C113.533 294.26 113.973 295.76 113.973 297.64H106.533C106.639 298.453 106.913 299.087 107.353 299.54C107.793 299.98 108.393 300.2 109.153 300.2C110.153 300.2 110.813 299.78 111.133 298.94H113.813C113.613 299.9 113.106 300.7 112.293 301.34C111.479 301.98 110.439 302.3 109.173 302.3ZM108.953 293.56C107.633 293.56 106.839 294.293 106.573 295.76H111.133C111.093 295.107 110.873 294.58 110.473 294.18C110.073 293.767 109.566 293.56 108.953 293.56ZM114.601 293.06V292.12C114.961 292 115.274 291.78 115.541 291.46C115.821 291.14 115.961 290.753 115.961 290.3H114.641V287.7H117.341V290.06C117.341 290.913 117.068 291.6 116.521 292.12C115.988 292.627 115.348 292.94 114.601 293.06ZM122.126 302.3C120.659 302.3 119.513 301.98 118.686 301.34C117.859 300.687 117.406 299.8 117.326 298.68H119.846C120.019 299.813 120.766 300.38 122.086 300.38C122.686 300.38 123.146 300.273 123.466 300.06C123.799 299.847 123.966 299.56 123.966 299.2C123.966 299.067 123.939 298.947 123.886 298.84C123.846 298.733 123.766 298.64 123.646 298.56C123.539 298.467 123.439 298.393 123.346 298.34C123.266 298.287 123.119 298.233 122.906 298.18C122.693 298.127 122.526 298.087 122.406 298.06C122.299 298.033 122.106 298 121.826 297.96C121.559 297.907 121.373 297.867 121.266 297.84C120.706 297.733 120.246 297.627 119.886 297.52C119.539 297.4 119.173 297.233 118.786 297.02C118.399 296.793 118.106 296.493 117.906 296.12C117.719 295.733 117.626 295.273 117.626 294.74C117.626 293.673 118.013 292.86 118.786 292.3C119.573 291.74 120.579 291.46 121.806 291.46C123.126 291.46 124.159 291.767 124.906 292.38C125.666 292.98 126.099 293.807 126.206 294.86H123.746C123.639 293.86 122.979 293.36 121.766 293.36C121.219 293.36 120.786 293.46 120.466 293.66C120.159 293.86 120.006 294.14 120.006 294.5C120.006 294.62 120.026 294.733 120.066 294.84C120.119 294.933 120.199 295.02 120.306 295.1C120.426 295.167 120.539 295.227 120.646 295.28C120.753 295.32 120.906 295.367 121.106 295.42C121.306 295.46 121.479 295.5 121.626 295.54C121.773 295.567 121.973 295.607 122.226 295.66C122.479 295.7 122.679 295.733 122.826 295.76C123.253 295.853 123.599 295.94 123.866 296.02C124.146 296.087 124.466 296.207 124.826 296.38C125.186 296.54 125.466 296.727 125.666 296.94C125.879 297.14 126.059 297.42 126.206 297.78C126.366 298.127 126.446 298.533 126.446 299C126.446 300.013 126.046 300.82 125.246 301.42C124.459 302.007 123.419 302.3 122.126 302.3ZM131.072 302V287.7H133.792V302H131.072ZM135.583 302V291.74H138.303V302H135.583ZM135.583 290.14V287.7H138.303V290.14H135.583ZM142.776 302L139.216 291.74H141.976L143.616 297.06L144.076 298.7H144.116C144.209 298.26 144.356 297.713 144.556 297.06L146.236 291.74H148.956L145.376 302H142.776ZM154.407 302.3C152.754 302.3 151.454 301.793 150.507 300.78C149.56 299.753 149.087 298.447 149.087 296.86C149.087 295.327 149.56 294.047 150.507 293.02C151.454 291.98 152.667 291.46 154.147 291.46C155.76 291.46 157.007 292.02 157.887 293.14C158.767 294.26 159.207 295.76 159.207 297.64H151.767C151.874 298.453 152.147 299.087 152.587 299.54C153.027 299.98 153.627 300.2 154.387 300.2C155.387 300.2 156.047 299.78 156.367 298.94H159.047C158.847 299.9 158.34 300.7 157.527 301.34C156.714 301.98 155.674 302.3 154.407 302.3ZM154.187 293.56C152.867 293.56 152.074 294.293 151.807 295.76H156.367C156.327 295.107 156.107 294.58 155.707 294.18C155.307 293.767 154.8 293.56 154.187 293.56ZM164.626 302.3C163.159 302.3 162.013 301.98 161.186 301.34C160.359 300.687 159.906 299.8 159.826 298.68H162.346C162.519 299.813 163.266 300.38 164.586 300.38C165.186 300.38 165.646 300.273 165.966 300.06C166.299 299.847 166.466 299.56 166.466 299.2C166.466 299.067 166.439 298.947 166.386 298.84C166.346 298.733 166.266 298.64 166.146 298.56C166.039 298.467 165.939 298.393 165.846 298.34C165.766 298.287 165.619 298.233 165.406 298.18C165.193 298.127 165.026 298.087 164.906 298.06C164.799 298.033 164.606 298 164.326 297.96C164.059 297.907 163.873 297.867 163.766 297.84C163.206 297.733 162.746 297.627 162.386 297.52C162.039 297.4 161.673 297.233 161.286 297.02C160.899 296.793 160.606 296.493 160.406 296.12C160.219 295.733 160.126 295.273 160.126 294.74C160.126 293.673 160.513 292.86 161.286 292.3C162.073 291.74 163.079 291.46 164.306 291.46C165.626 291.46 166.659 291.767 167.406 292.38C168.166 292.98 168.599 293.807 168.706 294.86H166.246C166.139 293.86 165.479 293.36 164.266 293.36C163.719 293.36 163.286 293.46 162.966 293.66C162.659 293.86 162.506 294.14 162.506 294.5C162.506 294.62 162.526 294.733 162.566 294.84C162.619 294.933 162.699 295.02 162.806 295.1C162.926 295.167 163.039 295.227 163.146 295.28C163.253 295.32 163.406 295.367 163.606 295.42C163.806 295.46 163.979 295.5 164.126 295.54C164.273 295.567 164.473 295.607 164.726 295.66C164.979 295.7 165.179 295.733 165.326 295.76C165.753 295.853 166.099 295.94 166.366 296.02C166.646 296.087 166.966 296.207 167.326 296.38C167.686 296.54 167.966 296.727 168.166 296.94C168.379 297.14 168.559 297.42 168.706 297.78C168.866 298.127 168.946 298.533 168.946 299C168.946 300.013 168.546 300.82 167.746 301.42C166.959 302.007 165.919 302.3 164.626 302.3Z" fill="black"/>
<rect x="4.5" y="4.5" width="216" height="216" rx="108" stroke="#00A678" stroke-width="9"/>
<path d="M57.5831 126.07V105.64H62.2631V107.5H62.3531C63.5331 105.96 65.0831 105.19 67.0031 105.19C69.0031 105.19 70.5931 105.96 71.7731 107.5C72.9731 109.02 73.5731 110.96 73.5731 113.32C73.5731 115.8 72.9631 117.78 71.7431 119.26C70.5231 120.74 68.9031 121.48 66.8831 121.48C65.0031 121.48 63.5531 120.79 62.5331 119.41H62.4731V126.07H57.5831ZM65.6231 117.7C66.5631 117.7 67.2931 117.33 67.8131 116.59C68.3531 115.83 68.6231 114.8 68.6231 113.5C68.6231 112.14 68.3631 111.07 67.8431 110.29C67.3231 109.51 66.5531 109.12 65.5331 109.12C64.5131 109.12 63.7231 109.53 63.1631 110.35C62.6031 111.15 62.3231 112.2 62.3231 113.5C62.3231 114.76 62.6131 115.78 63.1931 116.56C63.7731 117.32 64.5831 117.7 65.6231 117.7ZM80.4998 121.45C78.7598 121.45 77.4198 120.94 76.4798 119.92C75.5598 118.88 75.0998 117.48 75.0998 115.72V105.64H79.9598V114.7C79.9598 116.44 80.7298 117.31 82.2698 117.31C83.1098 117.31 83.7698 117.03 84.2498 116.47C84.7298 115.89 84.9698 115.14 84.9698 114.22V105.64H89.8598V121H85.1798V119.11H85.0898C83.9298 120.67 82.3998 121.45 80.4998 121.45ZM92.212 121V105.64H96.892V108.04H96.982C98.022 106.28 99.422 105.4 101.182 105.4C101.642 105.4 101.962 105.44 102.142 105.52V109.72H102.022C100.502 109.5 99.302 109.77 98.422 110.53C97.542 111.27 97.102 112.46 97.102 114.1V121H92.212ZM103.696 126.07V105.64H108.376V107.5H108.466C109.646 105.96 111.196 105.19 113.116 105.19C115.116 105.19 116.706 105.96 117.886 107.5C119.086 109.02 119.686 110.96 119.686 113.32C119.686 115.8 119.076 117.78 117.856 119.26C116.636 120.74 115.016 121.48 112.996 121.48C111.116 121.48 109.666 120.79 108.646 119.41H108.586V126.07H103.696ZM111.736 117.7C112.676 117.7 113.406 117.33 113.926 116.59C114.466 115.83 114.736 114.8 114.736 113.5C114.736 112.14 114.476 111.07 113.956 110.29C113.436 109.51 112.666 109.12 111.646 109.12C110.626 109.12 109.836 109.53 109.276 110.35C108.716 111.15 108.436 112.2 108.436 113.5C108.436 114.76 108.726 115.78 109.306 116.56C109.886 117.32 110.696 117.7 111.736 117.7ZM126.433 116.74C126.993 117.58 127.793 118 128.833 118C129.873 118 130.673 117.58 131.233 116.74C131.813 115.9 132.103 114.77 132.103 113.35C132.103 111.93 131.813 110.8 131.233 109.96C130.673 109.1 129.873 108.67 128.833 108.67C127.793 108.67 126.993 109.09 126.433 109.93C125.873 110.77 125.593 111.91 125.593 113.35C125.593 114.77 125.873 115.9 126.433 116.74ZM134.773 119.17C133.273 120.71 131.303 121.48 128.863 121.48C126.423 121.48 124.443 120.71 122.923 119.17C121.403 117.63 120.643 115.69 120.643 113.35C120.643 111.01 121.403 109.07 122.923 107.53C124.443 105.99 126.423 105.22 128.863 105.22C131.303 105.22 133.273 105.99 134.773 107.53C136.293 109.07 137.053 111.01 137.053 113.35C137.053 115.69 136.293 117.63 134.773 119.17ZM145.246 121.48C143.006 121.48 141.216 121 139.876 120.04C138.556 119.06 137.856 117.72 137.776 116.02H142.396C142.576 117.54 143.516 118.3 145.216 118.3C145.956 118.3 146.536 118.17 146.956 117.91C147.396 117.63 147.616 117.25 147.616 116.77C147.616 116.61 147.596 116.47 147.556 116.35C147.516 116.23 147.446 116.12 147.346 116.02C147.246 115.92 147.146 115.83 147.046 115.75C146.966 115.67 146.836 115.6 146.656 115.54C146.476 115.46 146.316 115.4 146.176 115.36C146.056 115.32 145.866 115.28 145.606 115.24C145.366 115.18 145.176 115.14 145.036 115.12C144.896 115.08 144.676 115.04 144.376 115C144.076 114.94 143.856 114.9 143.716 114.88C143.076 114.78 142.536 114.68 142.096 114.58C141.656 114.46 141.166 114.28 140.626 114.04C140.106 113.8 139.676 113.53 139.336 113.23C139.016 112.91 138.746 112.49 138.526 111.97C138.306 111.43 138.196 110.81 138.196 110.11C138.196 108.55 138.826 107.34 140.086 106.48C141.346 105.62 142.926 105.19 144.826 105.19C146.966 105.19 148.626 105.63 149.806 106.51C150.986 107.37 151.636 108.57 151.756 110.11H147.256C147.096 108.91 146.276 108.31 144.796 108.31C144.156 108.31 143.636 108.43 143.236 108.67C142.856 108.91 142.666 109.26 142.666 109.72C142.666 109.84 142.686 109.95 142.726 110.05C142.766 110.15 142.826 110.24 142.906 110.32C143.006 110.4 143.096 110.47 143.176 110.53C143.276 110.59 143.406 110.65 143.566 110.71C143.726 110.77 143.866 110.82 143.986 110.86C144.126 110.9 144.306 110.94 144.526 110.98C144.766 111.02 144.956 111.06 145.096 111.1C145.256 111.12 145.466 111.16 145.726 111.22C145.986 111.26 146.196 111.29 146.356 111.31C147.036 111.43 147.596 111.54 148.036 111.64C148.476 111.74 148.986 111.92 149.566 112.18C150.166 112.42 150.636 112.71 150.976 113.05C151.316 113.37 151.606 113.82 151.846 114.4C152.106 114.96 152.236 115.62 152.236 116.38C152.236 118.02 151.586 119.28 150.286 120.16C149.006 121.04 147.326 121.48 145.246 121.48ZM161.47 121.45C158.99 121.45 157 120.69 155.5 119.17C154.02 117.63 153.28 115.67 153.28 113.29C153.28 110.97 154.01 109.04 155.47 107.5C156.95 105.96 158.85 105.19 161.17 105.19C163.27 105.19 165.02 105.83 166.42 107.11C168.26 108.79 169.16 111.28 169.12 114.58H158.08C158.24 115.64 158.61 116.47 159.19 117.07C159.77 117.65 160.55 117.94 161.53 117.94C162.79 117.94 163.64 117.43 164.08 116.41H168.85C168.49 117.89 167.63 119.1 166.27 120.04C164.93 120.98 163.33 121.45 161.47 121.45ZM158.11 111.67H164.17C164.09 110.75 163.78 110.02 163.24 109.48C162.72 108.94 162.06 108.67 161.26 108.67C159.52 108.67 158.47 109.67 158.11 111.67Z" fill="black"/>
<path d="M112 174V199M112 199L122 189M112 199L102 189" stroke="black" stroke-width="7" stroke-linecap="round" stroke-linejoin="round"/>
</svg>
