<svg width="100" height="100" viewBox="0 0 100 100" fill="none" xmlns="http://www.w3.org/2000/svg">
<rect x="1" y="1" width="98" height="98" rx="49" stroke="#50A1DC" stroke-width="2"/>
<path d="M50 27C37.35 27 27 37.3685 27 50.1386C27 61.6847 35.418 71.2681 46.412 73V56.8353H40.57V50.1386H46.412V45.0351C46.412 39.239 49.839 36.0522 55.106 36.0522C57.613 36.0522 60.235 36.491 60.235 36.491V42.1948H57.337C54.485 42.1948 53.588 43.9729 53.588 45.7972V50.1386H59.982L58.947 56.8353H53.588V73C59.0078 72.1406 63.943 69.3641 67.5028 65.1718C71.0625 60.9795 73.0122 55.6476 72.9999 50.1386C72.9999 37.3685 62.65 27 50 27Z" fill="#50A1DC"/>
</svg>
