<svg width="100" height="100" viewBox="0 0 100 100" fill="none" xmlns="http://www.w3.org/2000/svg">
<rect x="1" y="1" width="98" height="98" rx="49" stroke="#50A1DC" stroke-width="2"/>
<g clip-path="url(#clip0_133_19)">
<path d="M50 29C44.3011 29 43.5845 29.0263 41.3454 29.126C39.1063 29.231 37.5811 29.5827 36.245 30.1025C34.8428 30.6284 33.5731 31.4554 32.5254 32.5254C31.4554 33.5731 30.6284 34.8428 30.1025 36.245C29.5827 37.5785 29.2284 39.1062 29.126 41.3375C29.0263 43.5819 29 44.2959 29 50.0026C29 55.7041 29.0263 56.4181 29.126 58.6573C29.231 60.8938 29.5827 62.4189 30.1025 63.755C30.6406 65.1357 31.3573 66.3065 32.5254 67.4746C33.6909 68.6427 34.8616 69.362 36.2424 69.8975C37.5811 70.4172 39.1036 70.7716 41.3401 70.874C43.5819 70.9737 44.2959 71 50 71C55.7041 71 56.4155 70.9737 58.6573 70.874C60.8911 70.769 62.4215 70.4172 63.7576 69.8975C65.1588 69.3713 66.4276 68.5443 67.4746 67.4746C68.6427 66.3065 69.3594 65.1357 69.8975 63.755C70.4146 62.4189 70.769 60.8938 70.874 58.6573C70.9737 56.4181 71 55.7041 71 50C71 44.2959 70.9737 43.5819 70.874 41.3401C70.769 39.1063 70.4146 37.5785 69.8975 36.245C69.3716 34.8428 68.5446 33.5731 67.4746 32.5254C66.4269 31.4554 65.1572 30.6284 63.755 30.1025C62.4162 29.5827 60.8885 29.2284 58.6546 29.126C56.4129 29.0263 55.7015 29 49.9948 29H50ZM48.1179 32.7853H50.0026C55.6096 32.7853 56.2737 32.8036 58.4866 32.906C60.5341 32.9979 61.6471 33.3418 62.3874 33.6279C63.3665 34.0085 64.0674 34.4652 64.8024 35.2002C65.5374 35.9352 65.9915 36.6335 66.3721 37.6153C66.6609 38.3529 67.0021 39.4659 67.094 41.5134C67.1964 43.7263 67.2174 44.3904 67.2174 49.9948C67.2174 55.5991 67.1964 56.2659 67.094 58.4787C67.0021 60.5262 66.6583 61.6366 66.3721 62.3769C66.0331 63.2875 65.496 64.1115 64.7997 64.7892C64.0647 65.5242 63.3665 65.9784 62.3848 66.359C61.6498 66.6478 60.5367 66.989 58.4866 67.0835C56.2737 67.1833 55.6096 67.2069 50.0026 67.2069C44.3956 67.2069 43.7289 67.1833 41.516 67.0835C39.4685 66.989 38.3581 66.6478 37.6179 66.359C36.7066 66.021 35.8817 65.4849 35.2029 64.7892C34.5053 64.111 33.9674 63.2861 33.6279 62.3742C33.3418 61.6366 32.9979 60.5236 32.906 58.4761C32.8063 56.2633 32.7853 55.5991 32.7853 49.9895C32.7853 44.3799 32.8063 43.721 32.906 41.5081C33.0005 39.4606 33.3418 38.3476 33.6305 37.6074C34.0111 36.6283 34.4679 35.9274 35.2029 35.1924C35.9379 34.4574 36.6361 34.0033 37.6179 33.6226C38.3581 33.3339 39.4685 32.9926 41.516 32.8981C43.4533 32.8089 44.204 32.7826 48.1179 32.78V32.7853ZM61.2114 36.2712C60.8804 36.2712 60.5528 36.3364 60.247 36.4631C59.9413 36.5897 59.6635 36.7753 59.4295 37.0093C59.1955 37.2433 59.0098 37.5211 58.8832 37.8269C58.7566 38.1326 58.6914 38.4603 58.6914 38.7913C58.6914 39.1222 58.7566 39.4499 58.8832 39.7556C59.0098 40.0614 59.1955 40.3392 59.4295 40.5732C59.6635 40.8072 59.9413 40.9928 60.247 41.1194C60.5528 41.2461 60.8804 41.3113 61.2114 41.3113C61.8797 41.3113 62.5207 41.0458 62.9933 40.5732C63.4659 40.1006 63.7314 39.4596 63.7314 38.7913C63.7314 38.1229 63.4659 37.4819 62.9933 37.0093C62.5207 36.5367 61.8797 36.2712 61.2114 36.2712ZM50.0026 39.2165C48.5722 39.1942 47.1516 39.4566 45.8236 39.9886C44.4955 40.5206 43.2866 41.3114 42.2671 42.3151C41.2477 43.3188 40.4381 44.5152 39.8855 45.8348C39.3328 47.1544 39.0482 48.5707 39.0482 50.0013C39.0482 51.4319 39.3328 52.8482 39.8855 54.1678C40.4381 55.4874 41.2477 56.6838 42.2671 57.6875C43.2866 58.6912 44.4955 59.482 45.8236 60.014C47.1516 60.546 48.5722 60.8084 50.0026 60.7861C52.8338 60.742 55.5341 59.5863 57.5206 57.5685C59.5071 55.5508 60.6205 52.8328 60.6205 50.0013C60.6205 47.1698 59.5071 44.4518 57.5206 42.4341C55.5341 40.4164 52.8338 39.2607 50.0026 39.2165ZM50.0026 42.9991C50.922 42.9991 51.8324 43.1802 52.6817 43.532C53.5311 43.8839 54.3029 44.3995 54.953 45.0496C55.6031 45.6997 56.1188 46.4715 56.4706 47.3209C56.8224 48.1703 57.0035 49.0806 57.0035 50C57.0035 50.9194 56.8224 51.8297 56.4706 52.6791C56.1188 53.5285 55.6031 54.3003 54.953 54.9504C54.3029 55.6005 53.5311 56.1161 52.6817 56.468C51.8324 56.8198 50.922 57.0009 50.0026 57.0009C48.1459 57.0009 46.3652 56.2633 45.0523 54.9504C43.7393 53.6374 43.0018 51.8567 43.0018 50C43.0018 48.1433 43.7393 46.3626 45.0523 45.0496C46.3652 43.7367 48.1459 42.9991 50.0026 42.9991Z" fill="#50A1DC"/>
</g>
<defs>
<clipPath id="clip0_133_19">
<rect width="42" height="42" fill="white" transform="translate(29 29)"/>
</clipPath>
</defs>
</svg>
