<svg width="100" height="100" viewBox="0 0 100 100" fill="none" xmlns="http://www.w3.org/2000/svg">
<rect x="1" y="1" width="98" height="98" rx="49" stroke="#50A1DC" stroke-width="2"/>
<path fill-rule="evenodd" clip-rule="evenodd" d="M49.8333 33C51.6146 33 53.4417 33.0458 55.2125 33.1208L57.3042 33.2208L59.3063 33.3396L61.1813 33.4667L62.8938 33.6C64.7522 33.7422 66.5009 34.5353 67.8323 35.8397C69.1638 37.144 69.9926 38.8761 70.1729 40.7312L70.2563 41.6167L70.4125 43.5125C70.5583 45.4771 70.6667 47.6187 70.6667 49.6667C70.6667 51.7146 70.5583 53.8563 70.4125 55.8208L70.2563 57.7167C70.2292 58.0208 70.2021 58.3146 70.1729 58.6021C69.9925 60.4575 69.1634 62.1899 67.8316 63.4943C66.4997 64.7987 64.7505 65.5916 62.8917 65.7333L61.1833 65.8646L59.3083 65.9937L57.3042 66.1125L55.2125 66.2125C53.4205 66.2904 51.627 66.3307 49.8333 66.3333C48.0396 66.3307 46.2462 66.2904 44.4542 66.2125L42.3625 66.1125L40.3604 65.9937L38.4854 65.8646L36.7729 65.7333C34.9145 65.5911 33.1657 64.798 31.8343 63.4937C30.5029 62.1893 29.6741 60.4572 29.4938 58.6021L29.4104 57.7167L29.2542 55.8208C29.0949 53.7732 29.0101 51.7205 29 49.6667C29 47.6187 29.1083 45.4771 29.2542 43.5125L29.4104 41.6167C29.4375 41.3125 29.4646 41.0187 29.4938 40.7312C29.674 38.8765 30.5025 37.1446 31.8335 35.8403C33.1645 34.536 34.9128 33.7427 36.7708 33.6L38.4813 33.4667L40.3563 33.3396L42.3604 33.2208L44.4521 33.1208C46.2448 33.043 48.0389 33.0027 49.8333 33ZM45.6667 44.6146V54.7187C45.6667 55.6812 46.7083 56.2812 47.5417 55.8021L56.2917 50.75C56.4821 50.6404 56.6402 50.4826 56.7502 50.2924C56.8602 50.1022 56.9181 49.8864 56.9181 49.6667C56.9181 49.447 56.8602 49.2312 56.7502 49.041C56.6402 48.8508 56.4821 48.6929 56.2917 48.5833L47.5417 43.5333C47.3516 43.4236 47.136 43.3658 46.9165 43.3659C46.697 43.3659 46.4814 43.4237 46.2913 43.5335C46.1013 43.6433 45.9435 43.8013 45.8338 43.9914C45.7242 44.1815 45.6665 44.3972 45.6667 44.6167V44.6146Z" fill="#50A1DC"/>
</svg>
