<svg width="100" height="100" viewBox="0 0 100 100" fill="none" xmlns="http://www.w3.org/2000/svg">
<rect x="1" y="1" width="98" height="98" rx="49" stroke="#50A1DC" stroke-width="2"/>
<g clip-path="url(#clip0_123_29)">
<g filter="url(#filter0_d_123_29)">
<path d="M49.8125 26.6875V25.9062C49.8125 25.4688 49.4688 25.125 49.0312 25.125C48.5938 25.125 48.25 25.4688 48.25 25.9062V26.6875H47.4688C47.0312 26.6875 46.6875 27.0312 46.6875 27.4688C46.6875 27.9062 47.0312 28.25 47.4688 28.25H48.25V31.5031C48.0312 31.5781 47.8203 31.6875 47.625 31.8281L38.4219 38.3906C38.0781 38.6406 37.875 39.0312 37.875 39.4531C37.8793 39.6656 37.9346 39.874 38.0361 40.0608C38.1377 40.2475 38.2826 40.4071 38.4587 40.5262C38.6347 40.6453 38.8368 40.7205 39.0479 40.7453C39.259 40.7701 39.473 40.7438 39.6719 40.6687V49.5797L27.7656 57.0156C27.3906 57.25 27.1719 57.6406 27.1719 58.0781H27.1562V58.25C27.1562 59.2344 28.25 59.8438 29.0781 59.3125L30.2969 58.5422V65.7344H29.2187C28.0625 65.7344 27.125 66.6719 27.125 67.8281V68.8594H30.2969V68.875H67.7969V68.8594H70.9219V67.8281C70.9219 66.6719 69.9844 65.7344 68.8281 65.7344H67.7969V58.3906L69 59.1406C69.2818 59.3167 69.622 59.3737 69.9458 59.299C70.2696 59.2243 70.5504 59.024 70.7266 58.7422C70.9027 58.4604 70.9596 58.1202 70.8849 57.7964C70.8102 57.4726 70.6099 57.1917 70.3281 57.0156L58.4219 49.5687V40.6687C58.6189 40.7451 58.8316 40.7722 59.0415 40.7476C59.2513 40.7231 59.452 40.6476 59.6261 40.5277C59.8001 40.4079 59.9423 40.2474 60.0401 40.0601C60.1379 39.8728 60.1885 39.6644 60.1875 39.4531C60.1875 39.0312 59.9844 38.6406 59.6406 38.3906L50.4375 31.8281C50.2422 31.6875 50.0312 31.5781 49.8125 31.5031V28.25H50.5938C51.0312 28.25 51.375 27.9062 51.375 27.4688C51.375 27.0469 51.0156 26.6875 50.5938 26.6875H49.8125ZM52.1719 45.6594L51.2188 45.0625C49.9062 44.2344 48.2344 44.2344 46.9062 45.0625L45.9219 45.6766V42.3125C45.9219 40.5938 47.3281 39.1875 49.0469 39.1875C50.7656 39.1875 52.1719 40.5938 52.1719 42.3125V45.6594ZM60.2031 60.4062V65.7344H55.2656V60.4062C55.2656 59.0469 56.375 57.9375 57.7344 57.9375C59.0938 57.9375 60.2031 59.0469 60.2031 60.4062ZM52.1719 56.375V65.7344H45.9219V56.375C45.9219 54.6562 47.3281 53.25 49.0469 53.25C50.7656 53.25 52.1719 54.6562 52.1719 56.375ZM42.7813 60.3906V65.7344H37.8906V60.3906C37.8906 59.0312 38.9844 57.9375 40.3438 57.9375C41.7031 57.9375 42.7969 59.0312 42.7969 60.3906H42.7813Z" fill="#50A1DC"/>
</g>
</g>
<defs>
<filter id="filter0_d_123_29" x="23.125" y="25.125" width="51.7969" height="51.75" filterUnits="userSpaceOnUse" color-interpolation-filters="sRGB">
<feFlood flood-opacity="0" result="BackgroundImageFix"/>
<feColorMatrix in="SourceAlpha" type="matrix" values="0 0 0 0 0 0 0 0 0 0 0 0 0 0 0 0 0 0 127 0" result="hardAlpha"/>
<feOffset dy="4"/>
<feGaussianBlur stdDeviation="2"/>
<feComposite in2="hardAlpha" operator="out"/>
<feColorMatrix type="matrix" values="0 0 0 0 0 0 0 0 0 0 0 0 0 0 0 0 0 0 0.25 0"/>
<feBlend mode="normal" in2="BackgroundImageFix" result="effect1_dropShadow_123_29"/>
<feBlend mode="normal" in="SourceGraphic" in2="effect1_dropShadow_123_29" result="shape"/>
</filter>
<clipPath id="clip0_123_29">
<rect width="50" height="50" fill="white" transform="translate(24 22)"/>
</clipPath>
</defs>
</svg>
