<svg width="100" height="100" viewBox="0 0 100 100" fill="none" xmlns="http://www.w3.org/2000/svg">
<rect x="1" y="1" width="98" height="98" rx="49" stroke="#50A1DC" stroke-width="2"/>
<g clip-path="url(#clip0_123_48)">
<g filter="url(#filter0_d_123_48)">
<path d="M49.9876 26.4626L47.3626 24.8896L46.8626 27.9084C46.0668 32.6751 42.8106 37.1042 39.2189 40.2167C32.1876 46.3126 30.6481 52.9376 32.8251 58.4063C34.9085 63.6396 40.196 67.223 45.5626 67.8209L46.8043 67.9584C43.7335 66.0813 41.7626 61.6959 42.4501 58.4188C43.1293 55.198 45.446 52.1813 49.896 49.398L52.1397 47.998L52.9772 50.5084C53.471 51.9917 54.3251 53.1834 55.1939 54.3938C55.6106 54.9771 56.0335 55.5667 56.421 56.1938C57.7606 58.3709 58.1147 60.7917 57.2501 63.1938C56.4626 65.3772 55.1647 67.0938 53.3751 68.0459L55.396 67.8209C60.4335 67.2605 64.1314 65.5376 66.5335 62.6563C68.9147 59.8001 69.7501 56.123 69.7501 52.2084C69.7501 48.5626 68.2522 44.8042 66.4856 41.6771C64.4147 38.0146 61.7126 34.973 58.7626 32.0251C58.2522 33.0459 58.2918 33.4584 57.2418 35.098C55.8789 31.4767 53.3194 28.4299 49.9876 26.4626Z" fill="#50A1DC"/>
</g>
</g>
<defs>
<filter id="filter0_d_123_48" x="27.9092" y="24.8896" width="45.8408" height="51.1562" filterUnits="userSpaceOnUse" color-interpolation-filters="sRGB">
<feFlood flood-opacity="0" result="BackgroundImageFix"/>
<feColorMatrix in="SourceAlpha" type="matrix" values="0 0 0 0 0 0 0 0 0 0 0 0 0 0 0 0 0 0 127 0" result="hardAlpha"/>
<feOffset dy="4"/>
<feGaussianBlur stdDeviation="2"/>
<feComposite in2="hardAlpha" operator="out"/>
<feColorMatrix type="matrix" values="0 0 0 0 0 0 0 0 0 0 0 0 0 0 0 0 0 0 0.25 0"/>
<feBlend mode="normal" in2="BackgroundImageFix" result="effect1_dropShadow_123_48"/>
<feBlend mode="normal" in="SourceGraphic" in2="effect1_dropShadow_123_48" result="shape"/>
</filter>
<clipPath id="clip0_123_48">
<rect width="50" height="50" fill="white" transform="translate(22 22)"/>
</clipPath>
</defs>
</svg>
