<svg width="100" height="100" viewBox="0 0 100 100" fill="none" xmlns="http://www.w3.org/2000/svg">
<rect x="1" y="1" width="98" height="98" rx="49" stroke="#50A1DC" stroke-width="2"/>
<g clip-path="url(#clip0_123_51)">
<g filter="url(#filter0_d_123_51)">
<path d="M72.2422 33.9925L64.1777 41.6033L71.892 54.5876L72.2422 54.1523V33.9925ZM25.7578 34.1036V56.1634C26.1953 56.2203 26.721 56.2516 27.2515 56.2572C28.4106 56.2694 29.3661 56.1937 29.9028 56.1455L35.0449 43.1342L25.7578 34.1036ZM63.7611 44.3438L63.0736 44.7887C63.059 44.7982 62.55 45.1145 62.4005 45.2077L61.3648 45.8346L61.3795 45.8434C60.8996 46.1419 60.7662 46.2259 60.2216 46.5641C59.9452 46.7357 59.9384 46.7397 59.6763 46.9025C57.6948 45.8374 55.5448 45.0187 53.0358 44.375C49.8804 45.3283 46.5376 46.7078 43.1997 48.0021C44.5854 49.6708 46.1255 50.2141 47.6768 50.2335C49.4756 50.256 51.3145 49.4738 52.5809 48.5974L53.3035 48.0974L54.0287 49.1453L65.3034 57.283L69.7089 54.3545L63.7611 44.3438ZM36.3513 44.6114L31.9209 55.821L33.5469 57.0713L36.5542 53.6626L36.7951 53.3897L37.1584 53.367C37.3049 53.3579 37.4494 53.3536 37.592 53.3543C38.5893 53.3608 39.4809 53.6196 40.1496 54.2098C40.6449 54.6465 40.9742 55.228 41.1652 55.9012L41.3879 55.8874C42.5593 55.8141 43.6146 56.0558 44.3791 56.7301C45.1435 57.4046 45.5148 58.4218 45.5881 59.5934L45.5949 59.6989C46.2238 59.8176 46.7868 60.0653 47.2446 60.4692C48.0091 61.1436 48.3804 62.1606 48.4536 63.3322L48.4729 63.6369C48.5353 63.6566 48.5971 63.6781 48.6584 63.7011L48.8569 63.4225L49.3911 62.6727L49.6658 62.287L50.3816 62.797L56.1852 66.9314C56.8164 66.7757 57.1927 66.5335 57.402 66.2394C57.6116 65.9453 57.7177 65.5099 57.6582 64.8618L50.6994 59.8784L49.9848 59.3667L50.4916 58.659L51.143 57.7445L51.8588 58.2545L59.704 63.843C60.3353 63.6875 60.7118 63.4452 60.9211 63.1511C61.1305 62.8572 61.2365 62.4229 61.1774 61.7759L52.1542 55.3746L51.4374 54.8658L52.4544 53.4322L53.1715 53.9408L62.1963 60.3436C62.8281 60.1879 63.2048 59.9457 63.4144 59.6514C63.6241 59.357 63.7301 58.9213 63.6702 58.272L52.8851 50.4878C51.4539 51.3363 49.6231 52.016 47.6549 51.9914C45.3515 51.9626 42.8876 50.8619 41.0751 48.0802C41.0034 47.9702 40.9573 47.8456 40.9401 47.7154C40.9229 47.5852 40.9351 47.4529 40.9758 47.328C41.0165 47.2032 41.0846 47.089 41.1752 46.994C41.2658 46.8989 41.3765 46.8254 41.4992 46.7788C42.7701 46.2959 44.0542 45.7856 45.3413 45.2793L36.3515 44.612L36.3513 44.6114ZM37.6112 55.1211L32.9663 60.3858C33.0568 61.0446 33.2632 61.4543 33.5412 61.6997C33.8192 61.945 34.2517 62.0986 34.9166 62.1063L39.5614 56.8418C39.4709 56.183 39.2646 55.773 38.9865 55.5277C38.7085 55.2824 38.2762 55.1289 37.6111 55.1212L37.6112 55.1211ZM41.8405 57.6417L36.5951 63.587C36.6855 64.2459 36.892 64.6558 37.1699 64.9011C37.4482 65.1462 37.8804 65.2999 38.5454 65.3074L43.7908 59.3623C43.7004 58.7033 43.4939 58.2935 43.2159 58.0481C42.938 57.8028 42.5057 57.6492 41.8406 57.6415L41.8405 57.6417ZM44.7058 61.3805L40.0612 66.6452C40.1518 67.304 40.3581 67.7138 40.6361 67.9592C40.9143 68.2045 41.3466 68.358 42.0115 68.3657L46.6562 63.1016C46.5657 62.4424 46.3594 62.0326 46.0813 61.7872C45.8033 61.5418 45.371 61.3884 44.706 61.3807L44.7058 61.3805ZM47.1181 65.2025L43.3296 69.5267C43.4199 70.1869 43.6263 70.5972 43.9046 70.8427C44.1824 71.0878 44.6143 71.2414 45.2783 71.2493L49.067 66.9251C48.9766 66.2651 48.7701 65.8547 48.4918 65.609C48.2141 65.3639 47.7822 65.2106 47.1182 65.2026L47.1181 65.2025ZM50.5694 65.6703C50.7349 66.1214 50.8305 66.6214 50.8638 67.1539L50.8864 67.5156L50.0781 68.4382L52.6879 70.2973C53.3191 70.1417 53.6953 69.8994 53.9047 69.6053C54.1142 69.3114 54.2204 68.8764 54.1613 68.2291L50.5695 65.6705L50.5694 65.6703Z" fill="#50A1DC"/>
</g>
</g>
<defs>
<filter id="filter0_d_123_51" x="21.7578" y="33.9924" width="54.4844" height="45.2568" filterUnits="userSpaceOnUse" color-interpolation-filters="sRGB">
<feFlood flood-opacity="0" result="BackgroundImageFix"/>
<feColorMatrix in="SourceAlpha" type="matrix" values="0 0 0 0 0 0 0 0 0 0 0 0 0 0 0 0 0 0 127 0" result="hardAlpha"/>
<feOffset dy="4"/>
<feGaussianBlur stdDeviation="2"/>
<feComposite in2="hardAlpha" operator="out"/>
<feColorMatrix type="matrix" values="0 0 0 0 0 0 0 0 0 0 0 0 0 0 0 0 0 0 0.25 0"/>
<feBlend mode="normal" in2="BackgroundImageFix" result="effect1_dropShadow_123_51"/>
<feBlend mode="normal" in="SourceGraphic" in2="effect1_dropShadow_123_51" result="shape"/>
</filter>
<clipPath id="clip0_123_51">
<rect width="50" height="50" fill="white" transform="translate(24 28)"/>
</clipPath>
</defs>
</svg>
