<svg width="100" height="100" viewBox="0 0 100 100" fill="none" xmlns="http://www.w3.org/2000/svg">
<rect x="1" y="1" width="98" height="98" rx="49" stroke="#50A1DC" stroke-width="2"/>
<g clip-path="url(#clip0_123_42)">
<g filter="url(#filter0_d_123_42)">
<path d="M52.4375 23.4689C52.6875 23.2736 52.9531 23.1467 53.2188 23.0685C53.5859 22.9709 53.9688 22.9807 54.3203 23.0783C54.9219 23.2541 55.4766 23.7131 55.8359 24.4064L65.2031 41.965C65.8906 43.2443 66.25 44.758 66.25 46.301V53.4787C66.25 54.1525 66.5938 54.7482 67.1016 54.9631L73.2891 57.5412C74.3125 57.9611 75 59.1525 75 60.5002V69.8752C75 70.842 74.6406 71.7599 74.0234 72.3557C73.4062 72.9514 72.6094 73.1467 71.8594 72.8928L58.6719 68.4982C54.2969 67.0432 51.25 62.0822 51.25 56.4182V44.8752C51.25 43.1467 52.3672 41.7502 53.75 41.7502C55.1328 41.7502 56.25 43.1467 56.25 44.8752V52.6877C56.25 53.5471 56.8125 54.2502 57.5 54.2502C58.1875 54.2502 58.75 53.5471 58.75 52.6877V44.3967C58.75 43.7131 58.6094 43.049 58.3359 42.4631L51.5859 27.6974C51.4531 27.4045 51.3594 27.1017 51.3047 26.7892C51.2266 26.3303 51.2266 25.8517 51.3125 25.4123C51.4609 24.631 51.8438 23.9279 52.4297 23.4689H52.4375ZM47.5625 23.4689C48.1484 23.9182 48.5312 24.631 48.6797 25.4123C48.7656 25.8615 48.7734 26.3303 48.6875 26.7892C48.6328 27.1017 48.5391 27.4045 48.4062 27.6974L41.6641 42.4631C41.3906 43.049 41.25 43.7228 41.25 44.3967V52.6877C41.25 53.5471 41.8125 54.2502 42.5 54.2502C43.1875 54.2502 43.75 53.5471 43.75 52.6877V44.8752C43.75 43.1467 44.8672 41.7502 46.25 41.7502C47.6328 41.7502 48.75 43.1467 48.75 44.8752V56.4279C48.75 62.092 45.7031 67.0432 41.3281 68.508L28.1484 72.9025C27.3984 73.1564 26.5938 72.9514 25.9844 72.3654C25.375 71.7795 25 70.8517 25 69.8752V60.5002C25 59.1525 25.6875 57.9611 26.7109 57.5314L32.8984 54.9533C33.4062 54.7385 33.75 54.1428 33.75 53.4689V46.2912C33.75 44.7482 34.1172 43.2443 34.7969 41.9553L44.1562 24.4162C44.5156 23.7228 45.0703 23.2639 45.6719 23.0881C46.0312 22.9807 46.4063 22.9709 46.7734 23.0783C47.0469 23.1564 47.3125 23.2834 47.5547 23.4787L47.5625 23.4689Z" fill="#50A1DC"/>
</g>
</g>
<defs>
<filter id="filter0_d_123_42" x="21" y="23" width="58" height="58.0095" filterUnits="userSpaceOnUse" color-interpolation-filters="sRGB">
<feFlood flood-opacity="0" result="BackgroundImageFix"/>
<feColorMatrix in="SourceAlpha" type="matrix" values="0 0 0 0 0 0 0 0 0 0 0 0 0 0 0 0 0 0 127 0" result="hardAlpha"/>
<feOffset dy="4"/>
<feGaussianBlur stdDeviation="2"/>
<feComposite in2="hardAlpha" operator="out"/>
<feColorMatrix type="matrix" values="0 0 0 0 0 0 0 0 0 0 0 0 0 0 0 0 0 0 0.25 0"/>
<feBlend mode="normal" in2="BackgroundImageFix" result="effect1_dropShadow_123_42"/>
<feBlend mode="normal" in="SourceGraphic" in2="effect1_dropShadow_123_42" result="shape"/>
</filter>
<clipPath id="clip0_123_42">
<rect width="50" height="50" fill="white" transform="translate(25 23)"/>
</clipPath>
</defs>
</svg>
